<?xml version="1.0" standalone="no"?>
<!DOCTYPE svg PUBLIC "-//W3C//DTD SVG 20010904//EN"
 "http://www.w3.org/TR/2001/REC-SVG-20010904/DTD/svg10.dtd">
<svg version="1.0" xmlns="http://www.w3.org/2000/svg"
 width="1050.000000pt" height="1050.000000pt" preserveAspectRatio="xMidYMid meet">
<metadata>
Created by potrace 1.11, written by Peter Selinger 2001-2013
</metadata>
<g transform="translate(0.000000,1050.000000) scale(0.100000,-0.100000)"
fill="#252525" stroke="none">
<path d="M0 5250 l0 -5250 5250 0 5250 0 0 5250 0 5250 -5250 0 -5250 0 0
-5250z m5292 4719 c29 -16 47 -67 54 -160 11 -143 71 -345 160 -540 24 -53 44
-108 44 -123 0 -42 -49 -86 -97 -86 -21 0 -44 -4 -52 -9 -17 -11 -29 -87 -30
-181 -1 -107 -2 -106 93 -113 162 -13 206 -46 192 -144 -12 -91 -78 -155 -194
-190 l-62 -18 52 -95 c82 -147 155 -236 398 -485 336 -344 466 -516 602 -793
197 -403 302 -925 301 -1487 -1 -406 -47 -734 -169 -1216 l-55 -216 257 -424
c141 -233 298 -491 347 -573 l91 -150 28 -160 c16 -89 55 -316 88 -506 33
-190 82 -473 109 -630 28 -157 82 -469 121 -695 38 -226 73 -422 76 -438 l6
-27 -243 2 -242 3 -208 730 c-114 402 -215 753 -224 780 -15 48 -28 60 -385
357 l-369 306 -48 -18 -48 -18 -21 -115 c-12 -63 -27 -124 -33 -135 -26 -48
-152 -93 -303 -107 l-78 -7 0 -889 0 -889 -200 0 -200 0 0 890 c0 490 -3 890
-7 890 -5 0 -51 7 -103 15 -122 18 -183 40 -224 79 -29 27 -35 42 -50 126 -9
52 -19 107 -22 122 -5 23 -15 30 -59 44 l-54 17 -59 -49 c-33 -27 -200 -166
-370 -309 -298 -249 -312 -262 -327 -310 -9 -27 -110 -378 -224 -780 l-208
-730 -242 -3 -243 -2 6 27 c3 16 22 122 41 238 20 116 56 325 80 465 24 140
71 413 104 605 33 193 90 523 126 735 l67 384 72 121 c40 66 158 260 261 430
103 171 228 375 276 455 l88 146 -45 164 c-57 211 -107 455 -139 673 -103 716
-19 1463 224 2007 137 307 274 491 651 875 261 266 340 361 407 491 l42 81
-57 16 c-90 25 -149 68 -177 130 -24 51 -31 100 -19 144 8 29 67 52 157 59 39
3 83 7 96 10 l24 5 -5 131 c-5 144 -12 158 -70 158 -36 0 -83 24 -92 45 -13
34 -5 84 20 131 75 140 161 418 175 563 15 156 51 207 121 170z"/>
<path d="M5223 7872 c-20 -26 -137 -149 -258 -273 -332 -338 -455 -496 -571
-734 -237 -485 -321 -1186 -224 -1855 71 -485 222 -1013 462 -1610 65 -163
157 -381 164 -388 5 -7 80 -21 168 -32 194 -24 717 -4 747 28 10 10 88 193
168 394 337 841 503 1548 504 2153 2 479 -93 950 -262 1301 -115 238 -227 388
-514 683 -106 108 -227 238 -269 288 l-76 92 -39 -47z"/>
</g>
</svg>
