<svg xmlns="http://www.w3.org/2000/svg" width="169.19" height="40.998" viewBox="0 0 169.19 40.998"><g transform="translate(-453 -2243)"><path d="M159.435.5H8.368L7.921.512h-.2A12.872,12.872,0,0,0,5.739.689a6.33,6.33,0,0,0-1.806.594A6.1,6.1,0,0,0,2.4,2.4,5.908,5.908,0,0,0,1.285,3.932a6.26,6.26,0,0,0-.594,1.81A12.619,12.619,0,0,0,.515,7.719c0,.136-.007.276-.009.464V32.818c0,.187,0,.328.009.469a12.614,12.614,0,0,0,.177,1.978,6.239,6.239,0,0,0,.593,1.808A5.864,5.864,0,0,0,2.4,38.6a5.929,5.929,0,0,0,1.531,1.114,6.363,6.363,0,0,0,1.808.6,13.021,13.021,0,0,0,1.978.173c.328.007.633.011.935.011h151.9c.3,0,.616,0,.932-.011a12.865,12.865,0,0,0,1.976-.173,6.472,6.472,0,0,0,1.817-.6,5.928,5.928,0,0,0,1.532-1.117,6.045,6.045,0,0,0,1.116-1.522,6.311,6.311,0,0,0,.589-1.815,12.8,12.8,0,0,0,.182-1.966c0-.147,0-.3,0-.47V9.768c0-.558,0-.8-.008-1.12V7.721a13.024,13.024,0,0,0-.184-1.986,6.294,6.294,0,0,0-.586-1.8,6.119,6.119,0,0,0-2.648-2.649,6.442,6.442,0,0,0-1.819-.6,12.688,12.688,0,0,0-1.97-.173H161L160.546.5h-1.111Z" transform="translate(452.994 2243)" stroke="#252525" stroke-width="1" fill-rule="evenodd"/><g transform="translate(1)"><rect width="1" height="31" transform="translate(557 2248)" fill="#fff"/><path d="M.539-2.76l1.072-.094A2.368,2.368,0,0,0,1.966-1.8a1.935,1.935,0,0,0,.864.668,3.273,3.273,0,0,0,1.318.255A3.159,3.159,0,0,0,5.3-1.066a1.593,1.593,0,0,0,.741-.53,1.23,1.23,0,0,0,.243-.735,1.118,1.118,0,0,0-.234-.706,1.736,1.736,0,0,0-.773-.507,15.117,15.117,0,0,0-1.529-.419A7.814,7.814,0,0,1,2.086-4.5a2.325,2.325,0,0,1-.917-.8,1.96,1.96,0,0,1-.3-1.069,2.183,2.183,0,0,1,.369-1.216,2.286,2.286,0,0,1,1.078-.858,4.09,4.09,0,0,1,1.576-.293,4.306,4.306,0,0,1,1.685.308A2.43,2.43,0,0,1,6.7-7.523,2.6,2.6,0,0,1,7.119-6.17l-1.09.082a1.758,1.758,0,0,0-.595-1.23,2.315,2.315,0,0,0-1.5-.416,2.4,2.4,0,0,0-1.5.378,1.133,1.133,0,0,0-.472.911.977.977,0,0,0,.334.762,4.526,4.526,0,0,0,1.714.612,11.336,11.336,0,0,1,1.9.548,2.6,2.6,0,0,1,1.107.876,2.134,2.134,0,0,1,.357,1.222,2.336,2.336,0,0,1-.393,1.292A2.585,2.585,0,0,1,5.856-.19,3.93,3.93,0,0,1,4.2.146a4.942,4.942,0,0,1-1.954-.34A2.737,2.737,0,0,1,1.011-1.216,2.9,2.9,0,0,1,.539-2.76ZM12.873,0V-.914A2.278,2.278,0,0,1,10.9.141,2.516,2.516,0,0,1,9.87-.07,1.694,1.694,0,0,1,9.161-.6a1.987,1.987,0,0,1-.325-.782,5.356,5.356,0,0,1-.064-.984V-6.223H9.826v3.451a6.15,6.15,0,0,0,.064,1.113A1.1,1.1,0,0,0,10.313-1a1.307,1.307,0,0,0,.8.237A1.736,1.736,0,0,0,12-1.011a1.352,1.352,0,0,0,.589-.662,3.322,3.322,0,0,0,.173-1.216V-6.223h1.055V0Zm3.568,0h-.979V-8.59h1.055v3.064a2.087,2.087,0,0,1,1.705-.838,2.611,2.611,0,0,1,1.087.231,2.22,2.22,0,0,1,.844.65,3.144,3.144,0,0,1,.519,1.011,4.167,4.167,0,0,1,.188,1.266,3.555,3.555,0,0,1-.791,2.473,2.474,2.474,0,0,1-1.9.873,1.981,1.981,0,0,1-1.729-.92ZM16.43-3.158a3.23,3.23,0,0,0,.3,1.617,1.519,1.519,0,0,0,1.348.814,1.517,1.517,0,0,0,1.2-.6,2.729,2.729,0,0,0,.5-1.79,2.776,2.776,0,0,0-.483-1.8,1.472,1.472,0,0,0-1.169-.58,1.517,1.517,0,0,0-1.2.6A2.637,2.637,0,0,0,16.43-3.158Zm5.291,1.3,1.043-.164a1.458,1.458,0,0,0,.489.961,1.705,1.705,0,0,0,1.122.334,1.648,1.648,0,0,0,1.078-.3.885.885,0,0,0,.352-.694.641.641,0,0,0-.311-.562,4.574,4.574,0,0,0-1.078-.357,9.838,9.838,0,0,1-1.608-.507,1.558,1.558,0,0,1-.68-.592A1.568,1.568,0,0,1,21.9-4.57a1.6,1.6,0,0,1,.19-.771,1.708,1.708,0,0,1,.519-.589,2.174,2.174,0,0,1,.671-.308,3.19,3.19,0,0,1,.911-.126,3.6,3.6,0,0,1,1.286.211,1.749,1.749,0,0,1,.817.571,2.232,2.232,0,0,1,.363.964l-1.031.141a1.128,1.128,0,0,0-.407-.75,1.489,1.489,0,0,0-.952-.27,1.724,1.724,0,0,0-1.037.24.7.7,0,0,0-.311.563.582.582,0,0,0,.129.369.93.93,0,0,0,.4.281q.158.059.932.27a12.969,12.969,0,0,1,1.562.489,1.584,1.584,0,0,1,.694.554,1.546,1.546,0,0,1,.252.9,1.771,1.771,0,0,1-.308.993,1.988,1.988,0,0,1-.888.721,3.231,3.231,0,0,1-1.312.255,2.924,2.924,0,0,1-1.849-.5A2.343,2.343,0,0,1,21.721-1.857ZM32.2-2.279l1.037.135a2.69,2.69,0,0,1-.87,1.679,2.535,2.535,0,0,1-1.72.606A2.672,2.672,0,0,1,28.6-.694a3.388,3.388,0,0,1-.776-2.394,4.331,4.331,0,0,1,.334-1.764,2.329,2.329,0,0,1,1.017-1.134,3.016,3.016,0,0,1,1.485-.378,2.582,2.582,0,0,1,1.658.513,2.351,2.351,0,0,1,.826,1.456l-1.025.158A1.7,1.7,0,0,0,31.6-5.18a1.342,1.342,0,0,0-.9-.316,1.637,1.637,0,0,0-1.295.571,2.712,2.712,0,0,0-.5,1.808,2.8,2.8,0,0,0,.48,1.822,1.564,1.564,0,0,0,1.254.568,1.478,1.478,0,0,0,1.037-.381A1.89,1.89,0,0,0,32.2-2.279Zm1.945-5.1V-8.59H35.2v1.213Zm0,7.377V-6.223H35.2V0Zm3.633,0H36.8V-8.59h1.055v3.064a2.087,2.087,0,0,1,1.705-.838,2.611,2.611,0,0,1,1.087.231,2.22,2.22,0,0,1,.844.65,3.144,3.144,0,0,1,.519,1.011A4.167,4.167,0,0,1,42.2-3.205a3.555,3.555,0,0,1-.791,2.473,2.474,2.474,0,0,1-1.9.873,1.981,1.981,0,0,1-1.729-.92ZM37.77-3.158a3.23,3.23,0,0,0,.3,1.617,1.519,1.519,0,0,0,1.348.814,1.517,1.517,0,0,0,1.2-.6,2.729,2.729,0,0,0,.5-1.79,2.776,2.776,0,0,0-.483-1.8,1.472,1.472,0,0,0-1.169-.58,1.517,1.517,0,0,0-1.2.6A2.637,2.637,0,0,0,37.77-3.158ZM47.742-2l1.09.135a2.659,2.659,0,0,1-.955,1.482A2.871,2.871,0,0,1,46.1.141,2.846,2.846,0,0,1,43.931-.7a3.285,3.285,0,0,1-.8-2.358A3.438,3.438,0,0,1,43.939-5.5a2.737,2.737,0,0,1,2.1-.867,2.66,2.66,0,0,1,2.039.85,3.376,3.376,0,0,1,.791,2.391q0,.094-.006.281H44.221a2.391,2.391,0,0,0,.58,1.57,1.727,1.727,0,0,0,1.3.545,1.614,1.614,0,0,0,.99-.3A2.023,2.023,0,0,0,47.742-2ZM44.279-3.709h3.475a2.108,2.108,0,0,0-.4-1.178A1.616,1.616,0,0,0,46.049-5.5a1.675,1.675,0,0,0-1.222.486A1.925,1.925,0,0,0,44.279-3.709Zm8.818.6a3.207,3.207,0,0,1,.961-2.561,2.9,2.9,0,0,1,1.957-.691,2.792,2.792,0,0,1,2.1.841A3.2,3.2,0,0,1,58.928-3.2a4.117,4.117,0,0,1-.36,1.89A2.551,2.551,0,0,1,57.519-.24a3.054,3.054,0,0,1-1.5.381A2.8,2.8,0,0,1,53.9-.7,3.347,3.347,0,0,1,53.1-3.111Zm1.084,0a2.65,2.65,0,0,0,.521,1.79,1.672,1.672,0,0,0,1.313.595,1.662,1.662,0,0,0,1.307-.6,2.713,2.713,0,0,0,.521-1.822A2.571,2.571,0,0,0,57.319-4.9a1.668,1.668,0,0,0-1.3-.595A1.675,1.675,0,0,0,54.7-4.9,2.639,2.639,0,0,0,54.182-3.111ZM60.164,0V-6.223h.949v.885a2.237,2.237,0,0,1,1.98-1.025,2.6,2.6,0,0,1,1.034.2,1.627,1.627,0,0,1,.706.53,2.035,2.035,0,0,1,.328.779,6.039,6.039,0,0,1,.059,1.025V0H64.166V-3.785a2.841,2.841,0,0,0-.123-.964,1.014,1.014,0,0,0-.437-.51,1.389,1.389,0,0,0-.735-.19,1.709,1.709,0,0,0-1.163.428A2.11,2.11,0,0,0,61.219-3.4V0ZM-.018,14l3.3-8.59H4.506L8.021,14H6.727l-1-2.6H2.133L1.189,14Zm2.479-3.527H5.373l-.9-2.379q-.41-1.084-.609-1.781A10.95,10.95,0,0,1,3.4,7.953ZM10.838,14V5.41H12l4.512,6.744V5.41h1.09V14H16.44L11.928,7.25V14Zm10.6,0V5.41h2.959a7.177,7.177,0,0,1,1.529.123,2.909,2.909,0,0,1,1.26.615A3.5,3.5,0,0,1,28.2,7.616a5.762,5.762,0,0,1,.337,2.042,6,6,0,0,1-.229,1.734,4.208,4.208,0,0,1-.586,1.251,3.113,3.113,0,0,1-.782.779,3.188,3.188,0,0,1-1.025.431,5.852,5.852,0,0,1-1.38.146Zm1.137-1.014h1.834a4.451,4.451,0,0,0,1.333-.158,1.907,1.907,0,0,0,.771-.445,2.71,2.71,0,0,0,.63-1.087,5.314,5.314,0,0,0,.226-1.655,4,4,0,0,0-.442-2.071,2.226,2.226,0,0,0-1.075-.97,4.444,4.444,0,0,0-1.471-.176h-1.8ZM32.039,14V5.41h3.809a5.069,5.069,0,0,1,1.746.231,1.909,1.909,0,0,1,.955.817,2.439,2.439,0,0,1,.357,1.295,2.16,2.16,0,0,1-.592,1.541,3,3,0,0,1-1.828.8,2.948,2.948,0,0,1,.686.428,5.906,5.906,0,0,1,.943,1.143L39.61,14H38.18l-1.137-1.787q-.5-.773-.82-1.184a2.579,2.579,0,0,0-.577-.574,1.706,1.706,0,0,0-.519-.229,3.415,3.415,0,0,0-.633-.041H33.176V14Zm1.137-4.8h2.443a3.664,3.664,0,0,0,1.219-.161,1.3,1.3,0,0,0,.668-.516,1.4,1.4,0,0,0,.229-.771,1.28,1.28,0,0,0-.442-1,2.07,2.07,0,0,0-1.4-.393H33.176Zm9.086.615A4.668,4.668,0,0,1,43.41,6.468a3.9,3.9,0,0,1,2.965-1.21,4.113,4.113,0,0,1,2.145.568,3.712,3.712,0,0,1,1.456,1.585,5.148,5.148,0,0,1,.5,2.306,5.061,5.061,0,0,1-.527,2.338,3.6,3.6,0,0,1-1.494,1.562,4.269,4.269,0,0,1-2.086.53,4.062,4.062,0,0,1-2.168-.586,3.771,3.771,0,0,1-1.447-1.6A4.848,4.848,0,0,1,42.262,9.816Zm1.172.018a3.441,3.441,0,0,0,.835,2.446,2.913,2.913,0,0,0,4.207-.009,3.648,3.648,0,0,0,.829-2.561,4.4,4.4,0,0,0-.354-1.831,2.724,2.724,0,0,0-1.037-1.213,2.812,2.812,0,0,0-1.532-.431,2.906,2.906,0,0,0-2.077.829A3.7,3.7,0,0,0,43.434,9.834ZM54.055,14V5.41h1.137V14Zm5.061,0V5.41h2.959a7.177,7.177,0,0,1,1.529.123,2.909,2.909,0,0,1,1.26.615A3.5,3.5,0,0,1,65.88,7.616a5.762,5.762,0,0,1,.337,2.042,6,6,0,0,1-.229,1.734,4.208,4.208,0,0,1-.586,1.251,3.113,3.113,0,0,1-.782.779,3.188,3.188,0,0,1-1.025.431,5.852,5.852,0,0,1-1.38.146Zm1.137-1.014h1.834a4.451,4.451,0,0,0,1.333-.158,1.907,1.907,0,0,0,.771-.445,2.71,2.71,0,0,0,.63-1.087,5.314,5.314,0,0,0,.226-1.655A4,4,0,0,0,64.6,7.569a2.226,2.226,0,0,0-1.075-.97,4.444,4.444,0,0,0-1.471-.176h-1.8Z" transform="translate(469 2261)" fill="#fff"/><g transform="translate(577 2247.98)"><path d="M23.915,9.662a2.487,2.487,0,0,0-1.873.855V9.986A8.058,8.058,0,0,0,18.09,3.152l.99-1.783A.911.911,0,0,0,18.729.136h0A.911.911,0,0,0,17.5.487L16.46,2.351a9.507,9.507,0,0,0-6.519,0L8.914.487A.905.905,0,0,0,7.681.136h0a.906.906,0,0,0-.36,1.234l.99,1.783A8.089,8.089,0,0,0,4.358,9.986v.531A2.483,2.483,0,0,0,0,12.147V19.8a2.483,2.483,0,0,0,4.358,1.63V22.5a2.632,2.632,0,0,0,2.629,2.629h.666v3.4a2.485,2.485,0,0,0,4.97,0v-3.4h1.153v3.4a2.485,2.485,0,0,0,4.97,0v-3.4h.666A2.632,2.632,0,0,0,22.042,22.5V21.431A2.483,2.483,0,0,0,26.4,19.8V12.147A2.49,2.49,0,0,0,23.915,9.662Z" transform="translate(0 0)" fill="#fff"/><path d="M30.467,16.844A1.845,1.845,0,0,0,28.63,18.68v7.654a1.837,1.837,0,0,0,3.674,0V18.68A1.839,1.839,0,0,0,30.467,16.844Zm-21.43,0A1.845,1.845,0,0,0,7.2,18.68v7.654a1.837,1.837,0,0,0,3.674,0V18.68A1.839,1.839,0,0,0,9.037,16.844Zm18.909.315V29.035a1.975,1.975,0,0,1-1.981,1.981H24.65v4.052a1.837,1.837,0,0,1-3.674,0V31.016H18.527v4.052a1.837,1.837,0,0,1-3.674,0V31.016H13.539a1.975,1.975,0,0,1-1.981-1.981V17.159Zm-4.178-7.23,1.3-2.341a.253.253,0,0,0-.1-.351.293.293,0,0,0-.126-.036.248.248,0,0,0-.225.135L23.3,9.694a8.794,8.794,0,0,0-7.1,0L14.9,7.335a.258.258,0,1,0-.45.252l1.3,2.341a7.489,7.489,0,0,0-4.178,6.582H27.955A7.5,7.5,0,0,0,23.768,9.928Zm-7.8,3.584a.684.684,0,1,1,.684-.684A.684.684,0,0,1,15.97,13.512Zm7.564,0a.684.684,0,1,1,.684-.684A.684.684,0,0,1,23.534,13.512Z" transform="translate(-6.552 -6.533)" fill="#77c159"/></g></g></g></svg>