<svg xmlns="http://www.w3.org/2000/svg" width="169.186" height="40.998" viewBox="0 0 169.186 40.998"><g transform="translate(-719 -767)"><path d="M159.435.5H8.368L7.921.512h-.2A12.872,12.872,0,0,0,5.739.689a6.33,6.33,0,0,0-1.806.594A6.1,6.1,0,0,0,2.4,2.4,5.908,5.908,0,0,0,1.285,3.932a6.26,6.26,0,0,0-.594,1.81A12.619,12.619,0,0,0,.515,7.719c0,.136-.007.276-.009.464V32.818c0,.187,0,.328.009.469a12.614,12.614,0,0,0,.177,1.978,6.239,6.239,0,0,0,.593,1.808A5.864,5.864,0,0,0,2.4,38.6a5.929,5.929,0,0,0,1.531,1.114,6.363,6.363,0,0,0,1.808.6,13.021,13.021,0,0,0,1.978.173c.328.007.633.011.935.011h151.9c.3,0,.616,0,.932-.011a12.865,12.865,0,0,0,1.976-.173,6.472,6.472,0,0,0,1.817-.6,5.928,5.928,0,0,0,1.532-1.117,6.045,6.045,0,0,0,1.116-1.522,6.311,6.311,0,0,0,.589-1.815,12.8,12.8,0,0,0,.182-1.966c0-.147,0-.3,0-.47V9.768c0-.558,0-.8-.008-1.12V7.721a13.027,13.027,0,0,0-.184-1.986,6.294,6.294,0,0,0-.586-1.8,6.119,6.119,0,0,0-2.648-2.649,6.442,6.442,0,0,0-1.819-.6,12.688,12.688,0,0,0-1.97-.173H161L160.546.5h-1.111Z" transform="translate(718.994 767)" stroke="#252525" stroke-width="1" fill-rule="evenodd"/><g transform="translate(797.463 764.002)"><path d="M7.54,23l0-5.442A1.979,1.979,0,0,1,8.6,15.715l9.076-5.376a1.992,1.992,0,0,1,2.225,0l9.111,5.392a1.983,1.983,0,0,1,1.044,1.818V28.431a1.974,1.974,0,0,1-1.04,1.823l-9.146,5.415a1.945,1.945,0,0,1-2.155.008l-9.1-5.4A2.01,2.01,0,0,1,7.542,28.4l0-5.4Zm13.572-.065,0-2.5a.741.741,0,0,0-.7-.8.752.752,0,0,0-.858.772l-.007,1.638a.434.434,0,0,1-.557.468c-.263-.065-.333-.246-.325-.489l0-2.169a.789.789,0,1,0-1.574-.06l-.007,1.76c0,.322-.151.477-.425.487s-.466-.161-.485-.484l0-.614a.694.694,0,0,0-.5-.674.767.767,0,0,0-1.048.734l-.006,1.555a.414.414,0,0,1-.429.445.421.421,0,0,1-.467-.411c-.011-.081,0-.164-.01-.245a.79.79,0,0,0-.772-.707.772.772,0,0,0-.77.715v2.456a.773.773,0,0,0,.767.715.791.791,0,0,0,.772-.707c.012-.094-.024-.213.021-.281.09-.13.195-.307.339-.352a.52.52,0,0,1,.427.135.626.626,0,0,1,.119.41l.008,2.415a.778.778,0,0,0,1.134.689.732.732,0,0,0,.416-.735l0-3.193c0-.5.149-.719.472-.715s.442.211.443.689l0,1.433a.77.77,0,0,0,.78.822.78.78,0,0,0,.8-.841l0-1.105c.007-.335.173-.519.455-.52s.436.195.44.522l.005,1.269A.779.779,0,1,0,21.13,25.4l0-2.457Zm2.473.868V22.415a.749.749,0,0,0-.742-.8.721.721,0,0,0-.819.72l.005,2.943a.749.749,0,0,0,.816.732.763.763,0,0,0,.741-.814V23.8Zm.91.387v.367a.777.777,0,0,0,1.546.064,4.478,4.478,0,0,0,0-.855.776.776,0,0,0-1.546.057c-.006.122,0,.245,0,.367Z" transform="translate(0)" fill="#f25c31"/><path d="M75.593,27.1a2.229,2.229,0,0,1,1.384,2.186,2.324,2.324,0,0,1-1.853,2.249,8.912,8.912,0,0,1-1.383.106l-1.778,0V23.217a8.242,8.242,0,0,1,2.933.237,2.268,2.268,0,0,1,.9,3.377l-.2.265Zm-2.338,3.313,1.136,0a1.76,1.76,0,0,0,.439-.083,1.138,1.138,0,0,0,.845-1.074,1.072,1.072,0,0,0-.724-1.152,4.611,4.611,0,0,0-1.7-.192v2.505Zm-.007-3.6c.624.023,1.248.081,1.58-.546a1.289,1.289,0,0,0-.076-1.432c-.38-.5-.948-.424-1.5-.432v2.409Zm-17.16,2.841V31.12a4.362,4.362,0,1,1,.005-7.465v1.478l-.417-.273a3.063,3.063,0,0,0-3.253-.265,3.256,3.256,0,0,0-1.264,4.418,3.057,3.057,0,0,0,4.332,1.05l.6-.413Zm6.521,1.977H61.378l-.033-.613a.643.643,0,0,0-.126.066,2.4,2.4,0,0,1-3.92-1.427,3.042,3.042,0,0,1,.481-2.685,2.305,2.305,0,0,1,3.357-.421c.05.044.105.083.2.156l.039-.668h1.235v5.59Zm-1.342-2.785a1.553,1.553,0,0,0-1.476-1.6,1.572,1.572,0,0,0-1.469,1.571,1.476,1.476,0,1,0,2.945.028Zm19.52,2.8a2.816,2.816,0,0,1-2.873-2.95,2.866,2.866,0,0,1,2.925-2.826,2.9,2.9,0,0,1,2.91,2.906,2.86,2.86,0,0,1-2.968,2.869Zm.065-1.3a1.559,1.559,0,0,0,1.56-1.6,1.586,1.586,0,1,0-1.559,1.6Zm3.562-4.306h1.577l1.23,1.593,1.255-1.6H90.1L88.047,28.6l2.367,3.016H88.842L87.23,29.578,85.57,31.619H83.945L86.417,28.6l-2-2.568Zm-17.5,1.634H65.714l-.132-.234a.327.327,0,0,0-.46-.13.593.593,0,0,0-.24.38.335.335,0,0,0,.312.364l.484.065A1.784,1.784,0,1,1,63.5,30.1a2.119,2.119,0,0,1,0-.25h1.14l.107.252a.589.589,0,0,0,.681.325.59.59,0,0,0-.094-1.158l-.442-.075a1.477,1.477,0,0,1-1.258-1.607,1.639,1.639,0,0,1,3.209-.411,4.754,4.754,0,0,1,.087.494Zm3.035-3.278V26.3l.7.045v1.11l-.705.033v4.121H68.723V27.5l-.761-.044V26.345L68.7,26.3V24.392Z" transform="translate(-14.667 -4.56)" fill="#f25f35"/><path d="M23.6,27.767l0,2.456a.779.779,0,1,1-1.556.062l-.005-1.269c0-.334-.165-.517-.44-.522s-.442.179-.455.52l0,1.1a.791.791,0,1,1-1.58.02l0-1.433c0-.478-.135-.686-.443-.689s-.471.218-.472.715l0,3.193a.74.74,0,0,1-.416.735.777.777,0,0,1-1.134-.689l-.008-2.415a.628.628,0,0,0-.119-.41.519.519,0,0,0-.427-.135c-.138.045-.25.215-.339.352-.046.069-.009.187-.021.281a.785.785,0,0,1-.772.707.763.763,0,0,1-.767-.715V27.185a.773.773,0,0,1,1.541-.008c.01.081,0,.164.01.245a.424.424,0,0,0,.467.411.413.413,0,0,0,.429-.445l.007-1.555a.767.767,0,0,1,1.048-.734.693.693,0,0,1,.5.674l0,.614c.02.323.2.494.485.484s.421-.164.425-.487l.007-1.76a.789.789,0,1,1,1.574.06l0,2.169c0,.243.069.432.325.489a.435.435,0,0,0,.557-.468l.007-1.638a.752.752,0,0,1,.858-.772.741.741,0,0,1,.7.8l0,2.5Zm2.473.868v1.391a.761.761,0,0,1-.741.814.748.748,0,0,1-.816-.732l-.005-2.943a.721.721,0,0,1,.819-.72.749.749,0,0,1,.742.8l0,1.391Zm.91.387v-.367a.776.776,0,0,1,1.546-.057,4.531,4.531,0,0,1,0,.855.777.777,0,0,1-1.546-.064c-.006-.122,0-.245,0-.367Z" transform="translate(-2.486 -4.836)" fill="#fefefe"/></g><path d="M19.708,23.062H15.75V16.881h1.2v5.03h2.755Zm2.869,0h-1.22V16.881h1.221Zm6.391-4.708-1.081.331a1.055,1.055,0,0,0-1.125-.872.875.875,0,0,0-.968.785c0,.34.218.61.671.7l.863.166a1.886,1.886,0,0,1,1.726,1.822A2.028,2.028,0,0,1,26.822,23.2a2.254,2.254,0,0,1-2.458-1.935l1.116-.3a1.24,1.24,0,0,0,1.351,1.159c.645,0,1-.323,1-.758,0-.357-.27-.636-.75-.732l-.863-.174A1.8,1.8,0,0,1,24.6,18.69a2.047,2.047,0,0,1,2.153-1.935,2.035,2.035,0,0,1,2.219,1.6Zm6.513-.331H33.529v5.039H32.317V18.023H30.364V16.881h5.117ZM41,23.062H37.13V16.881H41v1.133H38.333v1.412h2.415V20.5H38.333v1.43H41Zm7.228,0H46.965l-2.807-4.385v4.385h-1.2V16.881h1.5L47.03,20.97V16.881h1.2Zm5.834-3.095a1.935,1.935,0,1,0,3.862,0,1.935,1.935,0,1,0-3.862,0Zm-1.247.009a3.178,3.178,0,1,1,3.178,3.178,3.178,3.178,0,0,1-3.178-3.178Zm13.5,3.086H65.049l-2.807-4.385v4.385h-1.2V16.881h1.5l2.572,4.089V16.881h1.2Z" transform="translate(718.25 767.258)" fill="#fff" fill-rule="evenodd"/><rect width="1" height="31" transform="translate(794 772)" fill="#fff"/></g></svg>