<svg xmlns="http://www.w3.org/2000/svg" xmlns:xlink="http://www.w3.org/1999/xlink" width="169.186" height="40.998" viewBox="0 0 169.186 40.998"><defs><linearGradient id="a" x2="0" y2="1" gradientUnits="objectBoundingBox"><stop offset="0" stop-color="#00ccbf"/><stop offset="1" stop-color="#00b265"/></linearGradient><linearGradient id="b" x2="0" y2="1" gradientUnits="objectBoundingBox"><stop offset="0" stop-color="#151515"/><stop offset="1" stop-color="#353535"/></linearGradient><linearGradient id="c" x2="0" y2="1" gradientUnits="objectBoundingBox"><stop offset="0.3" stop-color="#fff"/><stop offset="1" stop-color="#9cc0b7"/></linearGradient></defs><g transform="translate(-719 -713)"><path d="M159.435.5H8.368L7.921.512h-.2A12.872,12.872,0,0,0,5.739.689a6.33,6.33,0,0,0-1.806.594A6.1,6.1,0,0,0,2.4,2.4,5.908,5.908,0,0,0,1.285,3.932a6.26,6.26,0,0,0-.594,1.81A12.619,12.619,0,0,0,.515,7.719c0,.136-.007.276-.009.464V32.818c0,.187,0,.328.009.469a12.614,12.614,0,0,0,.177,1.978,6.239,6.239,0,0,0,.593,1.808A5.864,5.864,0,0,0,2.4,38.6a5.929,5.929,0,0,0,1.531,1.114,6.363,6.363,0,0,0,1.808.6,13.021,13.021,0,0,0,1.978.173c.328.007.633.011.935.011h151.9c.3,0,.616,0,.932-.011a12.865,12.865,0,0,0,1.976-.173,6.472,6.472,0,0,0,1.817-.6,5.928,5.928,0,0,0,1.532-1.117,6.045,6.045,0,0,0,1.116-1.522,6.311,6.311,0,0,0,.589-1.815,12.8,12.8,0,0,0,.182-1.966c0-.147,0-.3,0-.47V9.768c0-.558,0-.8-.008-1.12V7.721a13.027,13.027,0,0,0-.184-1.986,6.294,6.294,0,0,0-.586-1.8,6.119,6.119,0,0,0-2.648-2.649,6.442,6.442,0,0,0-1.819-.6,12.688,12.688,0,0,0-1.97-.173H161L160.546.5h-1.111Z" transform="translate(718.994 713)" stroke="#252525" stroke-width="1" fill-rule="evenodd"/><g transform="translate(-4)"><path d="M16.06,7h7.87a17.278,17.278,0,0,1,5.32.44,5.524,5.524,0,0,1,3.3,3.3A16.941,16.941,0,0,1,33,16.06v7.87a16.908,16.908,0,0,1-.45,5.32,5.5,5.5,0,0,1-3.3,3.3,16.908,16.908,0,0,1-5.32.45H16.06a16.941,16.941,0,0,1-5.32-.45,5.524,5.524,0,0,1-3.3-3.3A17.278,17.278,0,0,1,7,23.93V16.06a17.312,17.312,0,0,1,.44-5.32,5.55,5.55,0,0,1,3.3-3.3A17.312,17.312,0,0,1,16.06,7Zm0,0" transform="translate(797 713)" fill-rule="evenodd" fill="url(#a)"/><ellipse cx="11" cy="11.05" rx="11" ry="11.05" transform="translate(806 721.97)" fill="url(#b)"/><path d="M24.72,26.44l-1.9-2.62a4.793,4.793,0,1,0-5.64.01l-1.9,2.63a8.044,8.044,0,1,1,9.44-.02Zm-4.71-8.43a1.93,1.93,0,1,1-1.93,1.93A1.931,1.931,0,0,1,20.01,18.01Zm0,0" transform="translate(797 713)" fill-rule="evenodd" fill="url(#c)"/><path d="M43.61,32.15a4.415,4.415,0,0,0,4.73-3.77H46.62a2.87,2.87,0,0,1-3,2.21c-2.04,0-3.34-1.7-3.34-4.38,0-2.66,1.31-4.37,3.33-4.37a2.985,2.985,0,0,1,3.01,2.43h1.71a4.5,4.5,0,0,0-4.72-3.99c-3.11,0-5.1,2.29-5.1,5.93,0,3.66,1.98,5.94,5.1,5.94Zm9.03-1.48a2.021,2.021,0,0,0,2.18-1.96v-.68l-2.04.15c-1.14.07-1.73.51-1.73,1.27C51.05,30.19,51.67,30.67,52.64,30.67Zm-.45,1.38a2.569,2.569,0,0,1-2.83-2.57c0-1.51,1.13-2.39,3.2-2.52l2.26-.14v-.67c0-.98-.64-1.52-1.76-1.52a1.609,1.609,0,0,0-1.72,1.23H49.78c.04-1.53,1.45-2.66,3.33-2.66,2.04,0,3.36,1.11,3.36,2.83v5.93h-1.6V30.52h-.03a2.93,2.93,0,0,1-2.65,1.53Zm5.82-6.28c0,1.2.75,1.99,2.26,2.38l1.5.38c.88.23,1.21.52,1.21,1.07,0,.7-.65,1.14-1.7,1.14s-1.71-.45-1.84-1.28H57.79c.12,1.56,1.46,2.6,3.41,2.6,2.03,0,3.45-1.06,3.45-2.61,0-1.27-.63-1.9-2.32-2.32l-1.38-.35c-.89-.22-1.31-.58-1.31-1.1,0-.69.63-1.14,1.58-1.14s1.6.48,1.67,1.24h1.57c-.04-1.51-1.36-2.57-3.2-2.57-1.93,0-3.25,1.04-3.25,2.56Zm8.5-4.4v1.94H65.35v1.36h1.16v5.01c0,1.68.64,2.34,2.32,2.34a4.441,4.441,0,0,0,.94-.09V30.57c-.11.01-.39.04-.57.04-.7,0-1.03-.35-1.03-1.1V24.67h1.61V23.31H68.17V21.37Zm4.68,10.59h1.67V26.8a1.79,1.79,0,0,1,1.8-2.01,2.217,2.217,0,0,1,.76.11V23.28a2.71,2.71,0,0,0-.58-.06,2.008,2.008,0,0,0-2.02,1.55h-.03V23.31h-1.6Zm8.55.1c-2.43,0-3.97-1.7-3.97-4.42s1.55-4.44,3.97-4.44,3.95,1.71,3.95,4.44S82.16,32.06,79.74,32.06Zm0-1.43c1.41,0,2.26-1.11,2.26-2.99s-.85-3.01-2.26-3.01-2.27,1.13-2.27,3.01S78.32,30.63,79.74,30.63Zm0,0" transform="translate(797 706.72)" fill="#fff" fill-rule="evenodd"/><path d="M19.708,23.062H15.75V16.881h1.2v5.03h2.755Zm2.869,0h-1.22V16.881h1.221Zm6.391-4.708-1.081.331a1.055,1.055,0,0,0-1.125-.872.875.875,0,0,0-.968.785c0,.34.218.61.671.7l.863.166a1.886,1.886,0,0,1,1.726,1.822A2.028,2.028,0,0,1,26.822,23.2a2.254,2.254,0,0,1-2.458-1.935l1.116-.3a1.24,1.24,0,0,0,1.351,1.159c.645,0,1-.323,1-.758,0-.357-.27-.636-.75-.732l-.863-.174A1.8,1.8,0,0,1,24.6,18.69a2.047,2.047,0,0,1,2.153-1.935,2.035,2.035,0,0,1,2.219,1.6Zm6.513-.331H33.529v5.039H32.317V18.023H30.364V16.881h5.117ZM41,23.062H37.13V16.881H41v1.133H38.333v1.412h2.415V20.5H38.333v1.43H41Zm7.228,0H46.965l-2.807-4.385v4.385h-1.2V16.881h1.5L47.03,20.97V16.881h1.2Zm5.834-3.095a1.935,1.935,0,1,0,3.862,0,1.935,1.935,0,1,0-3.862,0Zm-1.247.009a3.178,3.178,0,1,1,3.178,3.178,3.178,3.178,0,0,1-3.178-3.178Zm13.5,3.086H65.049l-2.807-4.385v4.385h-1.2V16.881h1.5l2.572,4.089V16.881h1.2Z" transform="translate(718.25 713.258)" fill="#fff" fill-rule="evenodd"/><rect width="1" height="31" transform="translate(794 718)" fill="#fff"/></g></g></svg>