<svg xmlns="http://www.w3.org/2000/svg" xmlns:xlink="http://www.w3.org/1999/xlink" width="160" height="40" viewBox="0 0 160 40"><defs><clipPath id="a"><rect width="160" height="40"/></clipPath></defs><g transform="translate(-1025 -404)"><g transform="translate(1025 404)" clip-path="url(#a)"><rect width="159.403" height="40" rx="8" stroke="#252525" stroke-width="1"/><g transform="translate(6.866 6.866)"><path d="M9.625,7v9.552h3.284V7Z" transform="translate(1.868 1.358)" fill="#fab908"/><circle cx="1.642" cy="1.642" r="1.642" transform="translate(0 10.597)" fill="#0066d9"/><circle cx="1.642" cy="1.642" r="1.642" transform="translate(0 12.388)" fill="#0066d9"/><rect width="3.284" height="1.791" transform="translate(0 12.239)" fill="#0066d9"/><circle cx="1.642" cy="1.642" r="1.642" transform="translate(22.985 12.388)" fill="#4285f4"/><circle cx="1.642" cy="1.642" r="1.642" transform="translate(22.985 10.597)" fill="#4285f4"/><rect width="3.284" height="1.791" transform="translate(26.269 14.03) rotate(180)" fill="#4285f4"/><circle cx="1.642" cy="1.642" r="1.642" transform="translate(5.672 15.97)" fill="#ea4335"/><circle cx="1.642" cy="1.642" r="1.642" transform="translate(5.672 17.761)" fill="#ea4335"/><rect width="3.284" height="1.791" transform="translate(5.672 17.612)" fill="#ea4335"/><circle cx="1.642" cy="1.642" r="1.642" transform="translate(5.672 5.224)" fill="#ea4335"/><circle cx="1.642" cy="1.642" r="1.642" transform="translate(5.672 11.045)" fill="#ea4335"/><rect width="3.284" height="5.858" transform="translate(5.672 6.866)" fill="#ea4335"/><circle cx="1.642" cy="1.642" r="1.642" transform="translate(17.313 7.015)" fill="#34a853"/><circle cx="1.642" cy="1.642" r="1.642" transform="translate(17.313 5.224)" fill="#34a853"/><rect width="3.284" height="1.791" transform="translate(20.597 8.657) rotate(180)" fill="#34a853"/><circle cx="1.642" cy="1.642" r="1.642" transform="translate(11.493 1.791)" fill="#fab908"/><circle cx="1.642" cy="1.642" r="1.642" transform="translate(11.493 0)" fill="#fab908"/><rect width="3.284" height="1.791" transform="translate(14.776 3.433) rotate(180)" fill="#fab908"/><circle cx="1.642" cy="1.642" r="1.642" transform="translate(11.493 22.985)" fill="#fab908"/><circle cx="1.642" cy="1.642" r="1.642" transform="translate(11.493 21.194)" fill="#fab908"/><rect width="3.284" height="1.791" transform="translate(14.776 24.627) rotate(180)" fill="#fab908"/><circle cx="1.642" cy="1.642" r="1.642" transform="translate(17.313 17.761)" fill="#34a853"/><circle cx="1.642" cy="1.642" r="1.642" transform="translate(17.313 11.94)" fill="#34a853"/><rect width="3.284" height="5.821" transform="translate(20.597 19.403) rotate(180)" fill="#34a853"/><circle cx="1.642" cy="1.642" r="1.642" transform="translate(11.493 6.716)" fill="#fab908"/><circle cx="1.642" cy="1.642" r="1.642" transform="translate(11.493 16.269)" fill="#fab908"/></g><g transform="translate(41.493 18.806)"><path d="M0,0H108.657V16.716H0Z" fill="none" fill-rule="evenodd"/><path d="M45.138,12.229H43.771V1.59H47.4a3.362,3.362,0,0,1,2.34.9,2.933,2.933,0,0,1,.988,2.266,2.933,2.933,0,0,1-.988,2.266,3.362,3.362,0,0,1-2.34.9H45.138Zm0-5.617h2.288a1.766,1.766,0,0,0,1.382-.579,1.83,1.83,0,0,0,0-2.556A1.766,1.766,0,0,0,47.426,2.9H45.138Zm6.72-.788a3.812,3.812,0,0,1,5.379-.007,3.859,3.859,0,0,1,1.055,2.771,3.749,3.749,0,1,1-7.492,0,3.832,3.832,0,0,1,1.059-2.763Zm1.01,4.681a2.3,2.3,0,0,0,1.679.713A2.262,2.262,0,0,0,56.22,10.5a2.611,2.611,0,0,0,.706-1.909,2.611,2.611,0,0,0-.706-1.909,2.3,2.3,0,0,0-3.343,0,2.611,2.611,0,0,0-.706,1.909,2.653,2.653,0,0,0,.7,1.914Zm9.544,1.961a3.2,3.2,0,0,1-2.437-1.114A3.928,3.928,0,0,1,58.95,8.588a3.928,3.928,0,0,1,1.025-2.764A3.2,3.2,0,0,1,62.413,4.71a3.1,3.1,0,0,1,1.493.357,2.525,2.525,0,0,1,.988.892h.059l-.059-1.01V1.59h1.367V12.229H64.953v-1.01h-.059a2.525,2.525,0,0,1-.988.891,3.094,3.094,0,0,1-1.493.357Zm.223-1.248a2.178,2.178,0,0,0,1.642-.713,2.672,2.672,0,0,0,.676-1.917,2.672,2.672,0,0,0-.676-1.917A2.23,2.23,0,0,0,61,6.679a2.66,2.66,0,0,0-.683,1.909A2.66,2.66,0,0,0,61,10.5a2.175,2.175,0,0,0,1.635.718ZM71,12.466a3.553,3.553,0,0,1-2.689-1.107,3.858,3.858,0,0,1-1.055-2.771,3.858,3.858,0,0,1,1.055-2.771A3.553,3.553,0,0,1,71.005,4.71a3.3,3.3,0,0,1,2.021.594A3.48,3.48,0,0,1,74.2,6.8l-1.248.52a2.038,2.038,0,0,0-2.036-1.367,2.123,2.123,0,0,0-1.6.743,2.662,2.662,0,0,0-.691,1.887,2.662,2.662,0,0,0,.691,1.887,2.219,2.219,0,0,0,3.707-.624l1.218.52a3.488,3.488,0,0,1-1.2,1.493,3.373,3.373,0,0,1-2.036.6Zm6.483,0a2.876,2.876,0,0,1-1.939-.669,2.214,2.214,0,0,1-.78-1.768,2.185,2.185,0,0,1,.921-1.865,3.738,3.738,0,0,1,2.273-.676,3.917,3.917,0,0,1,1.976.446V7.727a1.626,1.626,0,0,0-.55-1.285,1.976,1.976,0,0,0-1.352-.483,2.1,2.1,0,0,0-1.077.282,1.456,1.456,0,0,0-.661.773l-1.248-.535a2.832,2.832,0,0,1,1-1.211,3.188,3.188,0,0,1,1.961-.557,3.364,3.364,0,0,1,2.318.817,2.917,2.917,0,0,1,.921,2.3v4.4H79.94v-1.01h-.06a2.68,2.68,0,0,1-2.392,1.249Zm.223-1.248a2.227,2.227,0,0,0,1.538-.632,1.96,1.96,0,0,0,.691-1.493,2.7,2.7,0,0,0-1.74-.475,2.261,2.261,0,0,0-1.5.431,1.294,1.294,0,0,0-.5,1.01.973.973,0,0,0,.461.847,1.837,1.837,0,0,0,1.055.312Zm7.538,1.248a3.27,3.27,0,0,1-2.013-.594,3.517,3.517,0,0,1-1.166-1.486l1.218-.505a2.015,2.015,0,0,0,1.976,1.367,1.8,1.8,0,0,0,1.048-.282.865.865,0,0,0,.409-.743q0-.713-1-.966L84.253,8.9a3.5,3.5,0,0,1-1.322-.676,1.63,1.63,0,0,1-.624-1.345,1.839,1.839,0,0,1,.854-1.568,3.431,3.431,0,0,1,2.028-.6,3.379,3.379,0,0,1,1.724.438A2.471,2.471,0,0,1,88,6.4l-1.189.49a1.613,1.613,0,0,0-1.664-.966,1.942,1.942,0,0,0-1.025.253.769.769,0,0,0-.416.684q0,.624.966.847l1.441.342a2.722,2.722,0,0,1,1.516.817,1.971,1.971,0,0,1,.49,1.308,2.026,2.026,0,0,1-.8,1.635,3.165,3.165,0,0,1-2.07.657Zm6.958-.119a2.347,2.347,0,0,1-1.746-.609,2.348,2.348,0,0,1-.6-1.724V6.2h-1.28V4.948h1.278V2.719h1.367V4.948h1.783V6.2H91.226V9.911q0,1.189.981,1.189a1.462,1.462,0,0,0,.624-.119l.475,1.174a2.768,2.768,0,0,1-1.1.193Zm4.793.12a3.27,3.27,0,0,1-2.013-.594,3.517,3.517,0,0,1-1.166-1.486l1.218-.5a2.015,2.015,0,0,0,1.976,1.367,1.8,1.8,0,0,0,1.048-.282.865.865,0,0,0,.409-.743q0-.713-1-.966L96,8.9a3.5,3.5,0,0,1-1.322-.676,1.63,1.63,0,0,1-.624-1.345,1.839,1.839,0,0,1,.854-1.568,3.431,3.431,0,0,1,2.028-.6,3.379,3.379,0,0,1,1.724.438A2.471,2.471,0,0,1,99.745,6.4l-1.189.49a1.613,1.613,0,0,0-1.664-.966,1.942,1.942,0,0,0-1.025.253.769.769,0,0,0-.416.684q0,.624.966.847l1.441.342a2.722,2.722,0,0,1,1.516.817,1.971,1.971,0,0,1,.49,1.308,2.026,2.026,0,0,1-.8,1.635A3.165,3.165,0,0,1,97,12.467Z" transform="translate(8.493 0.308)" fill="#fff" fill-rule="evenodd"/><path d="M.292,6.581A6.174,6.174,0,0,1,6.479.486a5.818,5.818,0,0,1,4.179,1.683L9.474,3.342a4.2,4.2,0,0,0-3-1.2,4.365,4.365,0,0,0-4.36,4.427,4.365,4.365,0,0,0,4.365,4.423A4.075,4.075,0,0,0,9.555,9.773a3.458,3.458,0,0,0,.9-2.09H6.479V6.023h5.607a5.535,5.535,0,0,1,.093,1.045,5.451,5.451,0,0,1-1.439,3.889,5.61,5.61,0,0,1-4.26,1.706A6.171,6.171,0,0,1,.292,6.581ZM16.648,4.9a3.864,3.864,0,0,1,3.935,3.924,3.935,3.935,0,0,1-7.871,0A3.864,3.864,0,0,1,16.648,4.9Zm0,6.292a2.272,2.272,0,0,0,2.217-2.38,2.223,2.223,0,1,0-4.435,0,2.272,2.272,0,0,0,2.218,2.377ZM25.239,4.9a3.864,3.864,0,0,1,3.935,3.924,3.935,3.935,0,0,1-7.871,0A3.864,3.864,0,0,1,25.239,4.9Zm0,6.292a2.272,2.272,0,0,0,2.217-2.38,2.223,2.223,0,1,0-4.435,0,2.272,2.272,0,0,0,2.218,2.377Zm10.54-6.167h1.648v7.046c0,2.9-1.707,4.086-3.726,4.086a3.739,3.739,0,0,1-3.483-2.322l1.5-.627A2.162,2.162,0,0,0,33.69,14.6c1.289,0,2.09-.8,2.09-2.3v-.569h-.058a2.664,2.664,0,0,1-2.066.894,3.927,3.927,0,0,1,0-7.847,2.7,2.7,0,0,1,2.066.882h.058Zm-1.973,6.06A2.178,2.178,0,0,0,35.9,8.717a2.207,2.207,0,0,0-2.09-2.391,2.27,2.27,0,0,0-2.182,2.391,2.256,2.256,0,0,0,2.178,2.368ZM38.6,12.478V.95h1.718V12.478Zm6.443-1.289a2.257,2.257,0,0,0,1.939-1.08L48.317,11a3.928,3.928,0,0,1-3.274,1.741,3.839,3.839,0,0,1-3.889-3.924,3.732,3.732,0,0,1,3.7-3.924,3.636,3.636,0,0,1,3.355,2.5l.174.441-5.247,2.171a2.008,2.008,0,0,0,1.907,1.184Zm-.128-4.783A2.153,2.153,0,0,0,42.86,8.693l3.506-1.451a1.491,1.491,0,0,0-1.451-.835Z" transform="translate(0.057 0.094)" fill="#fff"/></g><path d="M36.755,13.435h3.621v.824H35.743V6.619h1.013Zm5.941.824h-.971V8.581H42.7ZM41.647,7.075a.579.579,0,0,1,.144-.4.542.542,0,0,1,.428-.163.55.55,0,0,1,.43.163.573.573,0,0,1,.147.4.575.575,0,1,1-1.149,0Zm6.177,5.678a.715.715,0,0,0-.3-.611,2.854,2.854,0,0,0-1.034-.375,4.89,4.89,0,0,1-1.17-.378,1.664,1.664,0,0,1-.64-.525,1.255,1.255,0,0,1-.207-.724,1.473,1.473,0,0,1,.59-1.181,2.3,2.3,0,0,1,1.509-.483,2.372,2.372,0,0,1,1.566.5,1.583,1.583,0,0,1,.6,1.275h-.976a.877.877,0,0,0-.338-.687,1.268,1.268,0,0,0-.853-.289,1.327,1.327,0,0,0-.829.231.727.727,0,0,0-.3.6.589.589,0,0,0,.278.53,3.421,3.421,0,0,0,1,.341,5.236,5.236,0,0,1,1.178.388,1.72,1.72,0,0,1,.669.543,1.336,1.336,0,0,1,.218.774,1.453,1.453,0,0,1-.609,1.22,2.554,2.554,0,0,1-1.579.459,2.858,2.858,0,0,1-1.207-.241,1.963,1.963,0,0,1-.821-.674,1.625,1.625,0,0,1-.3-.937h.971a1,1,0,0,0,.391.774,1.516,1.516,0,0,0,.963.286,1.565,1.565,0,0,0,.884-.223.685.685,0,0,0,.346-.593Zm3.821-5.546V8.581H52.7v.75H51.64v3.521a.786.786,0,0,0,.142.512.6.6,0,0,0,.483.171,2.348,2.348,0,0,0,.462-.063v.787a2.814,2.814,0,0,1-.745.1A1.209,1.209,0,0,1,51,13.97a1.69,1.69,0,0,1-.331-1.118V9.331H49.64v-.75h1.034V7.206Zm4.818,7.157a2.481,2.481,0,0,1-1.878-.758,2.814,2.814,0,0,1-.724-2.028V11.4a3.407,3.407,0,0,1,.323-1.509,2.518,2.518,0,0,1,.9-1.039,2.269,2.269,0,0,1,1.257-.375,2.126,2.126,0,0,1,1.721.729,3.158,3.158,0,0,1,.614,2.088v.4H54.831a2.018,2.018,0,0,0,.491,1.356,1.542,1.542,0,0,0,1.194.517,1.69,1.69,0,0,0,.871-.21,2.187,2.187,0,0,0,.624-.556l.593.462a2.384,2.384,0,0,1-2.141,1.1Zm-.121-5.09a1.3,1.3,0,0,0-.986.428,2.078,2.078,0,0,0-.493,1.2h2.844v-.073a1.849,1.849,0,0,0-.4-1.147A1.219,1.219,0,0,0,56.342,9.274Zm4.645-.693.031.714a2.069,2.069,0,0,1,1.7-.819q1.8,0,1.816,2.031v3.752h-.971V10.5a1.307,1.307,0,0,0-.281-.908,1.125,1.125,0,0,0-.858-.294,1.4,1.4,0,0,0-.829.252,1.71,1.71,0,0,0-.556.661v4.046h-.971V8.581Zm7.952,2.786a3.353,3.353,0,0,1,.328-1.5,2.447,2.447,0,0,1,.913-1.028,2.486,2.486,0,0,1,1.336-.362,2.394,2.394,0,0,1,1.876.8,3.089,3.089,0,0,1,.716,2.136v.068a3.383,3.383,0,0,1-.317,1.488A2.411,2.411,0,0,1,72.882,14a2.514,2.514,0,0,1-1.356.367,2.388,2.388,0,0,1-1.871-.8,3.073,3.073,0,0,1-.716-2.125Zm.976.115A2.428,2.428,0,0,0,70.353,13a1.485,1.485,0,0,0,2.348-.008,2.656,2.656,0,0,0,.436-1.624,2.424,2.424,0,0,0-.443-1.514,1.409,1.409,0,0,0-1.178-.58,1.394,1.394,0,0,0-1.16.572,2.636,2.636,0,0,0-.441,1.637Zm6.6-2.9.032.714a2.069,2.069,0,0,1,1.7-.819q1.8,0,1.816,2.031V14.26h-.971V10.5a1.307,1.307,0,0,0-.281-.908,1.125,1.125,0,0,0-.858-.294,1.4,1.4,0,0,0-.829.252,1.71,1.71,0,0,0-.556.661v4.046H75.6V8.581Z" transform="translate(6.637 0.965)" fill="#fff" fill-rule="evenodd"/></g></g></svg>