<svg xmlns="http://www.w3.org/2000/svg" xmlns:xlink="http://www.w3.org/1999/xlink" width="172.097" height="41.125" viewBox="0 0 172.097 41.125"><defs><linearGradient id="a" x1="0.5" x2="0.5" y2="1" gradientUnits="objectBoundingBox"><stop offset="0" stop-color="#f452ff"/><stop offset="1" stop-color="#832bc1"/></linearGradient></defs><g transform="translate(-596.373 -403.375)"><path d="M8.816,41c-.32,0-.631,0-.949-.011a13.306,13.306,0,0,1-1.961-.171,6.171,6.171,0,0,1-1.738-.575A5.672,5.672,0,0,1,2.7,39.174a5.58,5.58,0,0,1-1.07-1.465,6,6,0,0,1-.57-1.738A13.018,13.018,0,0,1,.888,34c-.007-.221-.015-.958-.015-.958V8.815s.009-.725.015-.938a12.977,12.977,0,0,1,.174-1.964,6.04,6.04,0,0,1,.57-1.743A5.636,5.636,0,0,1,2.7,2.7,5.841,5.841,0,0,1,4.168,1.63,6.107,6.107,0,0,1,5.9,1.06,13.206,13.206,0,0,1,7.869.888L8.816.875H164.022l.958.013a13,13,0,0,1,1.949.171,6.229,6.229,0,0,1,1.753.575,5.867,5.867,0,0,1,2.533,2.538,6.045,6.045,0,0,1,.561,1.73,13.632,13.632,0,0,1,.182,1.98c0,.3,0,.616,0,.934.008.393.008.768.008,1.145V31.914c0,.381,0,.753-.008,1.128,0,.341,0,.654,0,.975a13.353,13.353,0,0,1-.179,1.944,6.02,6.02,0,0,1-.566,1.752,5.749,5.749,0,0,1-1.065,1.454,5.678,5.678,0,0,1-1.468,1.073,6.149,6.149,0,0,1-1.75.577,13.156,13.156,0,0,1-1.961.171c-.307.007-.629.011-.941.011l-1.137,0Z" transform="translate(596 403)" stroke="#252525" stroke-width="1"/><g transform="translate(603.842 410.739)"><path d="M33.39,30.3a5.587,5.587,0,0,1-3.547,3.181,11.49,11.49,0,0,1-3.19.336H14.775a11.491,11.491,0,0,1-3.19-.336A5.587,5.587,0,0,1,8.039,30.3a10.346,10.346,0,0,1-.522-3.741h0V14.677h0a10.346,10.346,0,0,1,.522-3.741,5.587,5.587,0,0,1,3.547-3.181,11.49,11.49,0,0,1,3.19-.336H26.653a11.491,11.491,0,0,1,3.19.336,5.587,5.587,0,0,1,3.547,3.181,10.346,10.346,0,0,1,.522,3.741V26.555A10.35,10.35,0,0,1,33.39,30.3Z" transform="translate(-7.517 -7.418)" fill-rule="evenodd" fill="url(#a)"/><path d="M33.39,30.3a5.587,5.587,0,0,1-3.547,3.181,11.49,11.49,0,0,1-3.19.336H14.775a11.491,11.491,0,0,1-3.19-.336A5.587,5.587,0,0,1,8.039,30.3a10.346,10.346,0,0,1-.522-3.741h0V14.677h0a10.346,10.346,0,0,1,.522-3.741,5.587,5.587,0,0,1,3.547-3.181,11.49,11.49,0,0,1,3.19-.336H26.653a11.491,11.491,0,0,1,3.19.336,5.587,5.587,0,0,1,3.547,3.181,10.346,10.346,0,0,1,.522,3.741V26.555A10.35,10.35,0,0,1,33.39,30.3Z" transform="translate(-7.517 -7.418)" fill="none" fill-rule="evenodd"/><g transform="translate(3.919 2.925)"><path d="M22.446,22.453a2.643,2.643,0,0,0-1.913-.686,2.643,2.643,0,0,0-1.913.686,1.213,1.213,0,0,0-.35.76,9.872,9.872,0,0,0,.043,2c.069.809.2,1.888.37,2.986a11.361,11.361,0,0,0,.31,1.506,1.494,1.494,0,0,0,1.541.918,1.494,1.494,0,0,0,1.541-.918,11.361,11.361,0,0,0,.31-1.506c.171-1.1.3-2.177.37-2.986a9.873,9.873,0,0,0,.043-2A1.214,1.214,0,0,0,22.446,22.453Zm-4.071-3.721a2.16,2.16,0,1,0,2.16-2.16A2.16,2.16,0,0,0,18.375,18.732Zm2.133-8.525a9.282,9.282,0,0,0-3.045,18.041.124.124,0,0,0,.164-.135c-.048-.318-.093-.637-.134-.951a.319.319,0,0,0-.188-.251,8.094,8.094,0,1,1,6.459,0,.319.319,0,0,0-.187.252c-.041.314-.087.633-.134.95a.124.124,0,0,0,.164.135,9.282,9.282,0,0,0-3.1-18.041Zm-.168,4.258a5.028,5.028,0,0,1,3.639,8.693.385.385,0,0,0-.121.3,8.893,8.893,0,0,1-.011,1.06.122.122,0,0,0,.191.109,6.218,6.218,0,1,0-7,0,.122.122,0,0,0,.19-.109,8.9,8.9,0,0,1-.011-1.06.385.385,0,0,0-.121-.3,5.028,5.028,0,0,1,3.242-8.693Z" transform="translate(-11.253 -10.207)" fill="#fff"/></g></g><g transform="translate(636.183 422.635)"><path d="M46.609,28.266H41.643l-1.192,3.521h-2.1l4.7-13.027h2.185l4.7,13.027H47.8Zm-4.451-1.625h3.936l-1.94-5.715H44.1Z" transform="translate(-38.348 -18.76)" fill="#fff"/><path d="M59.5,26.879c0,2.951-1.58,4.847-3.963,4.847a3.219,3.219,0,0,1-2.988-1.662H52.5v4.7H50.552V22.13h1.887v1.58h.036A3.369,3.369,0,0,1,55.5,22.03C57.909,22.03,59.5,23.936,59.5,26.879Zm-2,0c0-1.923-.994-3.187-2.51-3.187-1.489,0-2.491,1.291-2.491,3.187,0,1.914,1,3.2,2.491,3.2C56.5,30.074,57.494,28.819,57.494,26.879Z" transform="translate(-37.75 -18.6)" fill="#fff"/><path d="M69.463,26.879c0,2.951-1.58,4.847-3.963,4.847a3.219,3.219,0,0,1-2.988-1.662h-.045v4.7H60.517V22.13H62.4v1.58h.036a3.369,3.369,0,0,1,3.024-1.679C67.874,22.03,69.463,23.936,69.463,26.879Zm-2,0c0-1.923-.994-3.187-2.51-3.187-1.489,0-2.491,1.291-2.491,3.187,0,1.914,1,3.2,2.491,3.2C66.465,30.074,67.459,28.819,67.459,26.879Z" transform="translate(-37.263 -18.6)" fill="#fff"/><path d="M70.55,18.76H72.5V31.787H70.55Z" transform="translate(-36.771 -18.76)" fill="#fff"/><path d="M82.485,28.838c-.262,1.724-1.941,2.907-4.089,2.907-2.763,0-4.478-1.851-4.478-4.821s1.724-4.911,4.4-4.911c2.628,0,4.28,1.8,4.28,4.684v.668H75.886v.118a2.474,2.474,0,0,0,2.555,2.69,2.149,2.149,0,0,0,2.193-1.336h1.851ZM75.9,26h4.748a2.284,2.284,0,0,0-2.329-2.41A2.4,2.4,0,0,0,75.9,26Z" transform="translate(-36.606 -18.6)" fill="#fff"/><path d="M92.315,18.76A4.088,4.088,0,0,1,96.6,23.04a4.132,4.132,0,0,1-4.352,4.3h-2.8v4.451H87.431V18.76Zm-2.862,6.88h2.32a2.439,2.439,0,0,0,2.762-2.591,2.43,2.43,0,0,0-2.752-2.583H89.453V25.64Z" transform="translate(-35.945 -18.76)" fill="#fff"/><path d="M96.854,26.879c0-2.988,1.76-4.866,4.5-4.866s4.505,1.878,4.505,4.866-1.742,4.866-4.505,4.866S96.854,29.876,96.854,26.879Zm7.023,0c0-2.05-.939-3.26-2.519-3.26s-2.519,1.219-2.519,3.26c0,2.058.939,3.259,2.519,3.259S103.877,28.938,103.877,26.879Z" transform="translate(-35.483 -18.6)" fill="#fff"/><path d="M106.747,27.039c0-2.934,1.615-4.848,3.971-4.848a3.2,3.2,0,0,1,2.979,1.679h.037V18.76h1.959V31.787h-1.9V30.171h-.036a3.239,3.239,0,0,1-3.024,1.715C108.362,31.886,106.747,29.973,106.747,27.039Zm2,0c0,1.949.994,3.2,2.51,3.2,1.5,0,2.5-1.264,2.5-3.2,0-1.915-1-3.187-2.5-3.187C109.736,23.852,108.742,25.107,108.742,27.039Z" transform="translate(-34.999 -18.76)" fill="#fff"/><path d="M123.5,25.4a2.1,2.1,0,0,0-2.238-1.751c-1.5,0-2.492,1.255-2.492,3.232,0,2.022,1,3.24,2.51,3.24a2.044,2.044,0,0,0,2.221-1.706h1.878a3.8,3.8,0,0,1-4.116,3.331c-2.708,0-4.478-1.851-4.478-4.866,0-2.952,1.769-4.866,4.459-4.866a3.818,3.818,0,0,1,4.117,3.385H123.5Z" transform="translate(-34.508 -18.6)" fill="#fff"/><path d="M126.113,28.928c0-1.661,1.272-2.663,3.529-2.8l2.6-.144v-.722c0-1.056-.695-1.652-1.877-1.652a1.815,1.815,0,0,0-2,1.337h-1.823c.054-1.716,1.651-2.934,3.872-2.934,2.266,0,3.765,1.236,3.765,3.1v6.509h-1.868V30.065h-.045a3.4,3.4,0,0,1-3,1.725A2.879,2.879,0,0,1,126.113,28.928Zm6.128-.857v-.731l-2.338.144c-1.165.073-1.823.578-1.823,1.39,0,.831.686,1.373,1.733,1.373A2.275,2.275,0,0,0,132.241,28.071Z" transform="translate(-34.051 -18.6)" fill="#fff"/><path d="M139.178,22.022c2.1,0,3.611,1.164,3.656,2.843H141c-.081-.839-.794-1.353-1.878-1.353-1.056,0-1.76.487-1.76,1.227,0,.569.469.948,1.454,1.191l1.6.371c1.914.46,2.636,1.164,2.636,2.555,0,1.715-1.625,2.889-3.945,2.889-2.239,0-3.746-1.147-3.891-2.881h1.931c.136.912.867,1.4,2.05,1.4,1.165,0,1.9-.478,1.9-1.236,0-.587-.362-.9-1.354-1.156l-1.7-.415c-1.716-.416-2.582-1.292-2.582-2.609C135.459,23.169,136.967,22.022,139.178,22.022Z" transform="translate(-33.605 -18.6)" fill="#fff"/><path d="M146.88,19.982V22.23h1.806v1.544H146.88v5.236c0,.813.362,1.192,1.156,1.192a6.089,6.089,0,0,0,.641-.045v1.535a5.35,5.35,0,0,1-1.083.09c-1.923,0-2.673-.722-2.673-2.564V23.774H143.54V22.23h1.381V19.982Z" transform="translate(-33.197 -18.7)" fill="#fff"/><path d="M153.628,22.022c2.1,0,3.611,1.164,3.656,2.843h-1.833c-.081-.839-.794-1.353-1.878-1.353-1.056,0-1.76.487-1.76,1.227,0,.569.469.948,1.454,1.191l1.6.371c1.914.46,2.636,1.164,2.636,2.555,0,1.715-1.625,2.889-3.945,2.889-2.239,0-3.746-1.147-3.891-2.881H151.6c.136.912.867,1.4,2.05,1.4,1.165,0,1.9-.478,1.9-1.236,0-.587-.362-.9-1.354-1.156l-1.7-.415c-1.716-.416-2.582-1.292-2.582-2.609C149.908,23.169,151.416,22.022,153.628,22.022Z" transform="translate(-32.897 -18.6)" fill="#fff"/></g><g transform="translate(637.115 411.643)"><path d="M43.14,14.953h-3.9V8.694h.972v5.365H43.14Z" transform="translate(-39.236 -8.261)" fill="#fff"/><path d="M44.035,8.853a.6.6,0,1,1,.6.568A.574.574,0,0,1,44.035,8.853Zm.139,1.4H45.1v4.723h-.928Z" transform="translate(-39.001 -8.281)" fill="#fff"/><path d="M48.222,10.071c1.063,0,1.757.494,1.847,1.327h-.893c-.087-.347-.425-.568-.954-.568s-.915.247-.915.616c0,.282.239.46.75.577l.785.182c.9.208,1.318.595,1.318,1.289,0,.889-.828,1.483-1.956,1.483s-1.857-.508-1.939-1.344H47.2a.959.959,0,0,0,1.028.59c.581,0,.994-.26.994-.638,0-.282-.221-.464-.695-.577l-.824-.191c-.9-.213-1.314-.616-1.314-1.318C46.387,10.661,47.155,10.071,48.222,10.071Z" transform="translate(-38.892 -8.193)" fill="#fff"/><path d="M52.425,9.037v1.2h1.023v.785H52.425v2.429c0,.495.2.711.668.711a3.123,3.123,0,0,0,.355-.022v.776a3.056,3.056,0,0,1-.508.048c-1.037,0-1.449-.365-1.449-1.275V11.02h-.75v-.785h.75v-1.2Z" transform="translate(-38.673 -8.244)" fill="#fff"/><path d="M58.451,13.611A1.919,1.919,0,0,1,56.4,14.977a2.145,2.145,0,0,1-2.182-2.438A2.178,2.178,0,0,1,56.4,10.071c1.314,0,2.108.9,2.108,2.381v.325H55.171v.052a1.248,1.248,0,0,0,1.258,1.353,1.133,1.133,0,0,0,1.124-.573Zm-3.279-1.522h2.386a1.14,1.14,0,0,0-1.162-1.224A1.208,1.208,0,0,0,55.171,12.088Z" transform="translate(-38.502 -8.193)" fill="#fff"/><path d="M59.5,10.162h.9v.75h.07a1.414,1.414,0,0,1,1.41-.841,1.537,1.537,0,0,1,1.635,1.757v3.058h-.933V12.062c0-.759-.33-1.137-1.019-1.137a1.083,1.083,0,0,0-1.128,1.2v2.763H59.5V10.162Z" transform="translate(-38.244 -8.193)" fill="#fff"/><path d="M66.918,12.522a2.237,2.237,0,1,1,4.455,0,2.238,2.238,0,1,1-4.455,0Zm3.5,0c0-1.024-.46-1.623-1.267-1.623s-1.267.6-1.267,1.623.455,1.626,1.267,1.626S70.414,13.55,70.414,12.522Z" transform="translate(-37.881 -8.193)" fill="#fff"/><path d="M72.357,10.162h.9v.75h.07a1.414,1.414,0,0,1,1.41-.841,1.537,1.537,0,0,1,1.635,1.757v3.058h-.933V12.062c0-.759-.33-1.137-1.019-1.137a1.083,1.083,0,0,0-1.128,1.2v2.763h-.933Z" transform="translate(-37.614 -8.193)" fill="#fff"/></g></g></svg>