<svg xmlns="http://www.w3.org/2000/svg" width="169.186" height="40.998" viewBox="0 0 169.186 40.998"><g transform="translate(-867 -396)"><path d="M159.435.5H8.368L7.921.512h-.2A12.872,12.872,0,0,0,5.739.689a6.33,6.33,0,0,0-1.806.594A6.1,6.1,0,0,0,2.4,2.4,5.908,5.908,0,0,0,1.285,3.932a6.26,6.26,0,0,0-.594,1.81A12.619,12.619,0,0,0,.515,7.719c0,.136-.007.276-.009.464V32.818c0,.187,0,.328.009.469a12.614,12.614,0,0,0,.177,1.978,6.239,6.239,0,0,0,.593,1.808A5.864,5.864,0,0,0,2.4,38.6a5.929,5.929,0,0,0,1.531,1.114,6.363,6.363,0,0,0,1.808.6,13.021,13.021,0,0,0,1.978.173c.328.007.633.011.935.011h151.9c.3,0,.616,0,.932-.011a12.865,12.865,0,0,0,1.976-.173,6.472,6.472,0,0,0,1.817-.6,5.928,5.928,0,0,0,1.532-1.117,6.045,6.045,0,0,0,1.116-1.522,6.311,6.311,0,0,0,.589-1.815,12.8,12.8,0,0,0,.182-1.966c0-.147,0-.3,0-.47V9.768c0-.558,0-.8-.008-1.12V7.721a13.027,13.027,0,0,0-.184-1.986,6.294,6.294,0,0,0-.586-1.8,6.119,6.119,0,0,0-2.648-2.649,6.442,6.442,0,0,0-1.819-.6,12.688,12.688,0,0,0-1.97-.173H161L160.546.5h-1.111Z" transform="translate(866.994 396)" stroke="#252525" stroke-width="1" fill-rule="evenodd"/><g transform="translate(11.398 1)"><path d="M8.748-2.038H1.6v-12H4.3V-4.23H8.748Zm4.318,0h-2.7v-12h2.7Zm2.176-.46V-5.176a5.145,5.145,0,0,0,1.582.916,5.084,5.084,0,0,0,1.724.305,3.823,3.823,0,0,0,.891-.092,2.088,2.088,0,0,0,.636-.255,1.113,1.113,0,0,0,.381-.385.96.96,0,0,0,.126-.481,1.04,1.04,0,0,0-.2-.628,2.161,2.161,0,0,0-.548-.51,5.727,5.727,0,0,0-.824-.452q-.477-.218-1.029-.444a5.253,5.253,0,0,1-2.1-1.431,3.124,3.124,0,0,1-.69-2.042,3.252,3.252,0,0,1,.377-1.611,3.2,3.2,0,0,1,1.025-1.109,4.6,4.6,0,0,1,1.5-.64,7.718,7.718,0,0,1,1.807-.205,10.871,10.871,0,0,1,1.661.113,6.532,6.532,0,0,1,1.335.347v2.5a4.036,4.036,0,0,0-.657-.368,5.2,5.2,0,0,0-.732-.264,5.585,5.585,0,0,0-.749-.155,5.3,5.3,0,0,0-.707-.05,3.688,3.688,0,0,0-.837.088,2.146,2.146,0,0,0-.636.247,1.228,1.228,0,0,0-.4.381.9.9,0,0,0-.142.5.951.951,0,0,0,.159.54,1.824,1.824,0,0,0,.452.452,4.8,4.8,0,0,0,.711.418q.418.205.946.423a10.537,10.537,0,0,1,1.293.64,4.6,4.6,0,0,1,.983.766,2.983,2.983,0,0,1,.628.975,3.445,3.445,0,0,1,.218,1.276,3.418,3.418,0,0,1-.381,1.686,3.091,3.091,0,0,1-1.033,1.1,4.481,4.481,0,0,1-1.519.607,8.778,8.778,0,0,1-1.828.184A10.167,10.167,0,0,1,16.785-2,5.671,5.671,0,0,1,15.241-2.5Zm18.585-9.339H30.4v9.8H27.693v-9.8H24.287v-2.2h9.54Zm8.812,9.8h-7.2v-12h6.92v2.2H38.145v2.669h3.925v2.192H38.145V-4.23h4.494Zm12.719,0H52.63l-4.946-7.54a10.9,10.9,0,0,1-.6-1h-.033q.067.636.067,1.941v6.594H44.563v-12h2.912l4.761,7.305q.326.494.6.979h.033A12.83,12.83,0,0,1,52.806-7.4v-6.636h2.552Z" transform="translate(882 423.238)" fill="#fff"/><path d="M12.4-2.038H9.668L4.723-9.577a10.9,10.9,0,0,1-.6-1H4.087q.067.636.067,1.941v6.594H1.6v-12H4.514L9.275-6.732q.326.494.6.979h.033A12.83,12.83,0,0,1,9.844-7.4v-6.636H12.4Zm7.816.209a5.586,5.586,0,0,1-4.2-1.678,6.023,6.023,0,0,1-1.623-4.372,6.454,6.454,0,0,1,1.649-4.6A5.707,5.707,0,0,1,20.4-14.238a5.447,5.447,0,0,1,4.155,1.682,6.2,6.2,0,0,1,1.586,4.435A6.351,6.351,0,0,1,24.5-3.561,5.644,5.644,0,0,1,20.212-1.828Zm.117-10.083a2.721,2.721,0,0,0-2.259,1.067,4.448,4.448,0,0,0-.837,2.824A4.367,4.367,0,0,0,18.07-5.2a2.681,2.681,0,0,0,2.192,1.038A2.708,2.708,0,0,0,22.48-5.172a4.319,4.319,0,0,0,.82-2.8,4.68,4.68,0,0,0-.795-2.9A2.592,2.592,0,0,0,20.329-11.912Zm15.548.075H32.454v9.8H29.743v-9.8H26.337v-2.2h9.54Zm8.812,9.8h-7.2v-12h6.92v2.2H40.195v2.669H44.12v2.192H40.195V-4.23h4.494Zm1.372-.46V-5.176a5.145,5.145,0,0,0,1.582.916,5.084,5.084,0,0,0,1.724.305,3.823,3.823,0,0,0,.891-.092,2.088,2.088,0,0,0,.636-.255,1.113,1.113,0,0,0,.381-.385.96.96,0,0,0,.126-.481,1.04,1.04,0,0,0-.2-.628,2.161,2.161,0,0,0-.548-.51,5.727,5.727,0,0,0-.824-.452Q49.35-6.975,48.8-7.2a5.253,5.253,0,0,1-2.1-1.431,3.124,3.124,0,0,1-.69-2.042,3.252,3.252,0,0,1,.377-1.611,3.2,3.2,0,0,1,1.025-1.109,4.6,4.6,0,0,1,1.5-.64,7.718,7.718,0,0,1,1.807-.205,10.871,10.871,0,0,1,1.661.113,6.532,6.532,0,0,1,1.335.347v2.5a4.036,4.036,0,0,0-.657-.368,5.2,5.2,0,0,0-.732-.264,5.585,5.585,0,0,0-.749-.155,5.3,5.3,0,0,0-.707-.05,3.688,3.688,0,0,0-.837.088,2.146,2.146,0,0,0-.636.247,1.228,1.228,0,0,0-.4.381.9.9,0,0,0-.142.5.951.951,0,0,0,.159.54,1.824,1.824,0,0,0,.452.452,4.8,4.8,0,0,0,.711.418q.418.205.946.423a10.537,10.537,0,0,1,1.293.64,4.6,4.6,0,0,1,.983.766,2.983,2.983,0,0,1,.628.975,3.445,3.445,0,0,1,.218,1.276,3.418,3.418,0,0,1-.381,1.686,3.091,3.091,0,0,1-1.033,1.1,4.481,4.481,0,0,1-1.519.607,8.777,8.777,0,0,1-1.828.184A10.167,10.167,0,0,1,47.6-2,5.671,5.671,0,0,1,46.061-2.5Z" transform="translate(941.982 423.238)" fill="#b83000"/></g></g></svg>