<svg 
 xmlns="http://www.w3.org/2000/svg"
 xmlns:xlink="http://www.w3.org/1999/xlink"
 width="1153px" height="157px">
<path fill-rule="evenodd"  fill="rgb(255, 255, 255)"
 d="M1145.192,157.000 L14.315,157.000 L14.315,149.215 L1145.192,149.215 L1145.192,14.273 L1153.000,14.273 L1153.000,149.215 L1153.000,157.000 L1145.192,157.000 ZM1126.959,38.265 L1126.959,131.686 L1106.950,131.686 L1106.950,24.965 L1126.959,24.965 L1126.959,31.615 L1113.620,31.615 L1113.620,125.036 L1120.289,125.036 L1120.289,38.265 L1126.959,38.265 ZM1044.325,112.548 C1053.325,112.548 1061.242,107.738 1068.074,98.113 L1091.011,98.113 C1087.213,108.062 1081.060,116.278 1072.548,122.766 C1064.033,129.253 1054.626,132.497 1044.325,132.497 C1030.116,132.497 1018.079,127.010 1008.212,116.035 C998.343,105.062 993.409,92.436 993.409,78.163 L994.222,78.163 C994.222,92.005 999.075,103.384 1008.781,112.304 C1018.486,121.225 1030.335,125.685 1044.325,125.685 C1051.373,125.685 1058.096,123.767 1064.496,119.927 C1070.893,116.091 1076.099,111.088 1080.112,104.925 L1071.490,104.925 C1063.032,114.332 1053.975,119.035 1044.325,119.035 C1032.829,119.035 1022.662,115.143 1013.824,107.358 C1004.984,99.572 1000.567,90.059 1000.567,78.812 C1000.567,71.676 1001.405,64.945 1003.088,58.619 C1004.768,52.294 1007.317,46.536 1010.733,41.346 C1014.149,36.156 1018.730,32.020 1024.479,28.939 C1030.226,25.857 1036.842,24.316 1044.325,24.316 C1055.818,24.316 1066.094,28.237 1075.151,36.075 C1084.204,43.916 1090.197,53.566 1093.125,65.026 L1073.280,65.026 C1068.400,51.187 1058.802,44.266 1044.487,44.266 C1035.703,44.266 1028.652,47.700 1023.340,54.565 C1018.026,61.432 1015.369,69.352 1015.369,78.326 L1014.556,78.326 C1014.556,73.244 1015.070,68.432 1016.102,63.891 C1017.131,59.349 1018.730,55.051 1020.900,50.997 C1023.068,46.942 1026.159,43.698 1030.172,41.265 C1034.183,38.832 1038.901,37.616 1044.325,37.616 C1051.157,37.616 1057.526,39.509 1063.438,43.292 C1069.348,47.079 1073.874,52.051 1077.021,58.214 L1083.853,58.214 C1080.275,50.104 1074.932,43.510 1067.830,38.427 C1060.726,33.346 1052.890,30.804 1044.325,30.804 C1035.866,30.804 1028.762,33.211 1023.015,38.021 C1017.266,42.834 1013.227,48.701 1010.896,55.619 C1008.563,62.540 1007.399,70.110 1007.399,78.326 C1007.399,87.517 1011.221,95.518 1018.867,102.330 C1026.512,109.142 1034.997,112.548 1044.325,112.548 ZM908.822,131.686 L908.822,24.965 L952.417,24.965 C958.815,24.965 964.292,27.210 968.847,31.696 C973.402,36.184 975.679,41.617 975.679,47.996 C975.679,54.377 973.483,59.917 969.091,64.620 C964.699,69.324 959.303,71.676 952.905,71.676 L922.161,71.676 L922.161,38.265 L947.212,38.265 C952.524,38.265 956.375,39.185 958.761,41.022 C961.145,42.862 962.340,46.374 962.340,51.564 L961.527,51.564 C961.527,47.132 958.164,44.914 951.441,44.914 L928.830,44.914 L928.830,65.026 L953.231,65.026 C957.785,65.026 961.552,63.323 964.536,59.917 C967.517,56.511 969.009,52.537 969.009,47.996 C969.009,43.564 967.408,39.724 964.211,36.481 C961.011,33.237 957.188,31.615 952.743,31.615 L915.491,31.615 L915.491,125.036 L922.161,125.036 L922.161,78.326 L945.422,78.326 L972.126,125.036 L979.995,125.036 L953.231,78.326 C960.820,78.326 967.464,75.812 973.158,70.784 C978.851,65.756 981.698,59.458 981.698,51.889 L982.348,51.889 C982.348,59.253 980.849,65.807 977.852,71.547 C974.853,77.289 970.141,81.187 963.710,83.244 L991.458,131.686 L969.009,131.686 L942.306,84.975 L928.830,84.975 L928.830,131.686 L908.822,131.686 ZM888.165,38.265 L888.165,131.686 L868.157,131.686 L868.157,24.965 L888.165,24.965 L888.165,31.615 L874.826,31.615 L874.826,125.036 L881.496,125.036 L881.496,38.265 L888.165,38.265 ZM802.601,125.036 C816.698,125.036 828.601,120.713 838.307,112.061 C848.012,103.412 852.866,92.167 852.866,78.326 L853.517,78.326 C853.517,92.816 848.609,105.330 838.795,115.873 C828.979,126.415 816.916,131.686 802.601,131.686 L766.001,131.686 L766.001,24.965 L802.601,24.965 C811.711,24.965 819.626,27.373 826.351,32.182 C833.074,36.995 838.063,43.130 841.317,50.591 C844.570,58.052 846.197,66.217 846.197,75.082 C846.197,86.220 842.265,96.222 834.403,105.087 C826.539,113.954 817.079,118.387 806.017,118.387 L779.340,118.387 L779.340,38.265 L802.601,38.265 C809.650,38.265 815.506,40.348 820.170,44.509 C824.831,48.673 828.059,53.619 829.848,59.349 C831.638,65.082 832.533,71.407 832.533,78.326 L831.882,78.326 C831.773,69.352 829.035,61.539 823.667,54.889 C818.299,48.239 811.276,44.914 802.601,44.914 L786.009,44.914 L786.009,111.737 L806.017,111.737 C814.802,111.737 822.610,107.844 829.442,100.059 C836.274,92.274 839.690,84.002 839.690,75.244 C839.690,63.351 836.355,53.105 829.686,44.509 C823.016,35.913 813.932,31.615 802.439,31.615 L772.670,31.615 L772.670,125.036 L802.601,125.036 ZM725.009,36.805 L757.380,131.686 L735.745,131.686 L726.607,104.925 L694.414,104.925 L685.317,131.686 L663.845,131.686 L700.283,24.965 L721.593,24.965 L713.993,47.324 L729.113,91.625 L691.682,91.625 L703.300,57.847 L706.749,68.640 L701.195,84.975 L719.801,84.975 L706.932,47.281 L712.320,31.615 L705.163,31.615 L672.817,125.036 L680.193,125.036 L689.397,98.275 L731.386,98.275 L740.521,125.036 L747.716,125.036 L721.267,47.509 L725.009,36.805 ZM614.882,112.548 C623.882,112.548 631.799,107.738 638.631,98.113 L661.568,98.113 C657.770,108.062 651.617,116.278 643.105,122.766 C634.590,129.253 625.183,132.497 614.882,132.497 C600.674,132.497 588.636,127.010 578.769,116.035 C568.900,105.062 563.966,92.436 563.966,78.163 L564.780,78.163 C564.780,92.005 569.632,103.384 579.338,112.304 C589.043,121.225 600.892,125.685 614.882,125.685 C621.930,125.685 628.653,123.767 635.053,119.927 C641.450,116.091 646.656,111.088 650.669,104.925 L642.047,104.925 C633.589,114.332 624.533,119.035 614.882,119.035 C603.386,119.035 593.219,115.143 584.381,107.358 C575.541,99.572 571.124,90.059 571.124,78.812 C571.124,71.676 571.962,64.945 573.645,58.619 C575.325,52.294 577.874,46.536 581.290,41.346 C584.707,36.156 589.287,32.020 595.036,28.939 C600.783,25.857 607.399,24.316 614.882,24.316 C626.375,24.316 636.651,28.237 645.708,36.075 C654.761,43.916 660.754,53.566 663.683,65.026 L643.837,65.026 C638.957,51.187 629.359,44.266 615.044,44.266 C606.260,44.266 599.210,47.700 593.897,54.565 C588.583,61.432 585.927,69.352 585.927,78.326 L585.113,78.326 C585.113,73.244 585.627,68.432 586.659,63.891 C587.688,59.349 589.287,55.051 591.457,50.997 C593.625,46.942 596.716,43.698 600.729,41.265 C604.740,38.832 609.458,37.616 614.882,37.616 C621.714,37.616 628.083,39.509 633.995,43.292 C639.905,47.079 644.432,52.051 647.578,58.214 L654.410,58.214 C650.832,50.104 645.489,43.510 638.387,38.427 C631.283,33.346 623.447,30.804 614.882,30.804 C606.423,30.804 599.319,33.211 593.572,38.021 C587.823,42.834 583.784,48.701 581.453,55.619 C579.120,62.540 577.956,70.110 577.956,78.326 C577.956,87.517 581.778,95.518 589.424,102.330 C597.069,109.142 605.554,112.548 614.882,112.548 ZM488.977,38.265 L488.977,131.686 L468.806,131.686 L468.806,44.914 L435.459,44.914 L435.459,24.965 L522.324,24.965 L522.324,44.914 L495.647,44.914 L495.647,38.265 L515.655,38.265 L515.655,31.615 L441.966,31.615 L441.966,38.265 L475.476,38.265 L475.476,125.036 L482.308,125.036 L482.308,38.265 L488.977,38.265 ZM371.695,118.387 L371.695,91.625 L378.364,91.625 L378.364,111.737 L431.882,111.737 L431.882,131.686 L358.356,131.686 L358.356,24.965 L425.213,24.965 L425.213,44.914 L378.364,44.914 L378.364,78.326 L411.874,78.326 L411.874,71.676 L385.034,71.676 L385.034,65.026 L418.544,65.026 L418.544,84.975 L371.695,84.975 L371.695,38.265 L418.544,38.265 L418.544,31.615 L365.025,31.615 L365.025,125.036 L425.213,125.036 L425.213,118.387 L371.695,118.387 ZM236.031,131.686 L236.031,24.965 L253.307,24.965 L286.921,86.022 L314.925,24.965 L322.245,24.965 L287.434,100.373 L249.369,31.615 L242.700,31.615 L242.700,125.036 L249.369,125.036 L249.369,45.338 L288.062,115.361 L329.728,24.965 L336.398,24.965 L336.398,131.686 L316.227,131.686 L316.227,86.111 L322.896,71.676 L322.896,125.036 L329.728,125.036 L329.728,40.110 L288.029,129.413 L256.039,71.189 L256.039,131.686 L236.031,131.686 ZM147.053,91.625 L147.053,131.686 L127.044,131.686 L127.044,24.965 L147.053,24.965 L147.053,78.326 L200.571,78.326 L200.571,125.036 L207.240,125.036 L207.240,31.615 L200.571,31.615 L200.571,71.676 L153.722,71.676 L153.722,65.026 L193.901,65.026 L193.901,24.965 L213.910,24.965 L213.910,131.686 L193.901,131.686 L193.901,84.975 L140.383,84.975 L140.383,31.615 L133.714,31.615 L133.714,125.036 L140.383,125.036 L140.383,91.625 L147.053,91.625 ZM86.052,36.805 L118.423,131.686 L96.788,131.686 L87.651,104.925 L55.458,104.925 L46.361,131.686 L24.888,131.686 L61.326,24.965 L82.636,24.965 L75.036,47.324 L90.157,91.625 L52.725,91.625 L64.343,57.847 L67.792,68.640 L62.239,84.975 L80.844,84.975 L67.975,47.281 L73.364,31.615 L66.206,31.615 L33.861,125.036 L41.237,125.036 L50.440,98.275 L92.429,98.275 L101.564,125.036 L108.760,125.036 L82.311,47.509 L86.052,36.805 ZM7.808,157.000 L-0.000,157.000 L-0.000,7.785 L-0.000,-0.000 L1153.000,-0.000 L1153.000,7.785 L7.808,7.785 L7.808,157.000 Z"/>
</svg>