<?xml version="1.0" standalone="no"?>
<!DOCTYPE svg PUBLIC "-//W3C//DTD SVG 20010904//EN"
 "http://www.w3.org/TR/2001/REC-SVG-20010904/DTD/svg10.dtd">
<svg version="1.0" xmlns="http://www.w3.org/2000/svg"
 width="100%" height="100%" viewBox="0 0 1024.000000 1024.000000"
 preserveAspectRatio="xMidYMid meet">
<metadata>
Created by potrace 1.11, written by Peter Selinger 2001-2013
</metadata>
<g transform="translate(0.000000,1024.000000) scale(0.100000,-0.100000)"
fill="#51ab6d" stroke="none">
<path d="M5030 9867 c-3 -3 -21 -7 -40 -10 -183 -26 -360 -136 -494 -308 -36
-47 -104 -205 -122 -284 -16 -74 -17 -167 -18 -1182 0 -606 -1 -1101 -3 -1100
-1 1 -359 358 -795 793 -523 522 -813 804 -851 828 -224 143 -479 158 -717 43
-75 -36 -64 -29 -156 -106 -128 -107 -213 -223 -257 -351 -33 -95 -37 -115
-42 -222 -6 -147 36 -296 121 -424 24 -36 341 -361 837 -856 438 -439 797
-799 797 -801 0 -2 -496 -3 -1102 -3 -607 -1 -1125 -4 -1153 -7 -325 -43 -576
-279 -652 -612 -13 -57 -15 -193 -3 -262 50 -313 287 -562 600 -629 67 -15
244 -17 1725 -18 l1650 -1 1 -1645 c1 -905 4 -1662 8 -1683 30 -177 116 -341
237 -452 91 -84 208 -149 324 -180 90 -25 263 -27 360 -6 291 64 517 293 581
590 15 69 17 236 18 1726 l1 1650 1650 1 c1251 1 1665 4 1710 13 308 62 552
304 610 604 19 99 13 261 -14 355 -85 293 -338 510 -641 550 -25 3 -539 6
-1142 6 -604 0 -1098 2 -1098 4 0 1 359 363 799 802 460 460 814 823 835 855
85 127 119 243 119 405 1 123 -17 202 -68 315 -65 140 -235 309 -392 388 -148
76 -352 91 -523 41 -67 -19 -191 -84 -239 -126 -20 -16 -390 -383 -822 -814
l-785 -785 0 1088 c0 598 -3 1113 -7 1143 -11 93 -65 254 -90 271 -5 3 -7 9
-5 11 5 8 -60 96 -112 152 -94 102 -252 190 -392 219 -63 13 -239 23 -248 14z"/>
</g>
</svg>
