<svg xmlns="http://www.w3.org/2000/svg" xmlns:xlink="http://www.w3.org/1999/xlink" width="169.186" height="40.998" viewBox="0 0 169.186 40.998"><defs><linearGradient id="a" x1="0.5" x2="0.5" y2="1" gradientUnits="objectBoundingBox"><stop offset="0" stop-color="#f93"/><stop offset="1" stop-color="#ff7833"/></linearGradient><linearGradient id="b" x1="0.5" y1="1" x2="0.5" gradientUnits="objectBoundingBox"><stop offset="0" stop-color="#292e33"/><stop offset="1" stop-color="#434e59"/></linearGradient></defs><g transform="translate(-719 -605)"><path d="M159.435.5H8.368L7.921.512h-.2A12.872,12.872,0,0,0,5.739.689a6.33,6.33,0,0,0-1.806.594A6.1,6.1,0,0,0,2.4,2.4,5.908,5.908,0,0,0,1.285,3.932a6.26,6.26,0,0,0-.594,1.81A12.619,12.619,0,0,0,.515,7.719c0,.136-.007.276-.009.464V32.818c0,.187,0,.328.009.469a12.614,12.614,0,0,0,.177,1.978,6.239,6.239,0,0,0,.593,1.808A5.864,5.864,0,0,0,2.4,38.6a5.929,5.929,0,0,0,1.531,1.114,6.363,6.363,0,0,0,1.808.6,13.021,13.021,0,0,0,1.978.173c.328.007.633.011.935.011h151.9c.3,0,.616,0,.932-.011a12.865,12.865,0,0,0,1.976-.173,6.472,6.472,0,0,0,1.817-.6,5.928,5.928,0,0,0,1.532-1.117,6.045,6.045,0,0,0,1.116-1.522,6.311,6.311,0,0,0,.589-1.815,12.8,12.8,0,0,0,.182-1.966c0-.147,0-.3,0-.47V9.768c0-.558,0-.8-.008-1.12V7.721a13.027,13.027,0,0,0-.184-1.986,6.294,6.294,0,0,0-.586-1.8,6.119,6.119,0,0,0-2.648-2.649,6.442,6.442,0,0,0-1.819-.6,12.688,12.688,0,0,0-1.97-.173H161L160.546.5h-1.111Z" transform="translate(718.994 605)" stroke="#252525" stroke-width="1" fill-rule="evenodd"/><g transform="translate(1 -67)"><path d="M32.65,29.68a5.652,5.652,0,0,1-1.68,2.19,5.387,5.387,0,0,1-1.84.96,11.335,11.335,0,0,1-3.16.33H14.19a11.38,11.38,0,0,1-3.16-.33,5.387,5.387,0,0,1-1.84-.96,5.52,5.52,0,0,1-1.67-2.19A10.346,10.346,0,0,1,7,25.97V14.19a10.268,10.268,0,0,1,.52-3.7,5.476,5.476,0,0,1,1.67-2.2,5.566,5.566,0,0,1,1.84-.96A11.38,11.38,0,0,1,14.19,7H25.97a11.335,11.335,0,0,1,3.16.33,5.58,5.58,0,0,1,3.52,3.16,10.235,10.235,0,0,1,.51,3.7V25.97A10.312,10.312,0,0,1,32.65,29.68Zm0,0" transform="translate(721 672)" fill-rule="evenodd" fill="url(#a)"/><circle cx="10" cy="10" r="10" transform="translate(731 682)" fill="#fff"/><path d="M20,31A11,11,0,1,1,31,20,10.994,10.994,0,0,1,20,31Zm0-4.33.85-.85L20,22.66l-.85,3.16Zm-1.05-.08-.42,1.54.99-.98Zm2.1,0-.56.56.98.98Zm.76,2.86L20,27.64l-1.81,1.81h.01a9.425,9.425,0,0,0,3.59,0ZM20,10.38v-.01a9.624,9.624,0,0,0-3.14,18.72l2.04-7.63a1.832,1.832,0,1,1,2.56-.36,2.044,2.044,0,0,1-.36.36l2.05,7.63h-.01A9.623,9.623,0,0,0,20,10.37Zm0,0" transform="translate(721 672)" fill-rule="evenodd" fill="url(#b)"/><path d="M26.29,24.77l-.01.01a.7.7,0,0,1-.96.12h.01a.641.641,0,0,1-.16-.89l.02-.02.03-.05a7.068,7.068,0,0,0-.07-7.99l.04.06a.626.626,0,0,1,.11-.89c.01-.01.02-.02.03-.02v-.01a.715.715,0,0,1,.96.14,8.334,8.334,0,0,1,0,9.54Zm-3.35-1.8-.01-.01a.781.781,0,0,1,.04-1.04,2.991,2.991,0,0,0,0-3.84.793.793,0,0,1-.04-1.05h.01a.651.651,0,0,1,.92-.08.12.12,0,0,1,.05.05l.03.02a4.531,4.531,0,0,1-.06,6.01l.03-.03a.661.661,0,0,1-.93.02.218.218,0,0,0-.04-.05Zm-5.88,0a.66.66,0,0,1-.92.08c-.02-.02-.04-.03-.05-.05l-.03-.03a4.531,4.531,0,0,1,.06-6.01l-.03.04a.661.661,0,0,1,.93-.02c.01.02.03.03.04.05h.01a.793.793,0,0,1-.04,1.05,2.991,2.991,0,0,0,0,3.84.781.781,0,0,1,.04,1.04Zm-2.39,1.94a.715.715,0,0,1-.96-.14,8.334,8.334,0,0,1,0-9.54l.01-.01a.7.7,0,0,1,.96-.12h-.01a.641.641,0,0,1,.16.89l-.02.02-.03.05a7.068,7.068,0,0,0,.07,7.99l-.04-.06a.626.626,0,0,1-.11.89c-.01.01-.02.02-.03.02Zm0,0" transform="translate(721 672)" fill="#f93" fill-rule="evenodd"/><path d="M51,24.97c0-3.98-2.81-6.48-6.05-6.48a6.214,6.214,0,0,0-6.09,6.48,6.074,6.074,0,1,0,12.14,0Zm-1.77-.04c0,2.54-1.69,4.81-4.25,4.81-2.73,0-4.35-2.34-4.35-4.81,0-3.07,2.05-4.91,4.23-4.91C47.34,20.02,49.23,22.04,49.23,24.93Zm4.54-1.99H52.09l3.37,8.31H56l3.55-8.31H57.87l-2.03,5.25h-.07Zm13.1,4.48a5.385,5.385,0,0,0,.18-1.5,3.048,3.048,0,0,0-3.11-3.24c-2.11,0-3.71,1.86-3.71,4.5,0,2.88,1.71,4.07,3.65,4.07a3.966,3.966,0,0,0,2.69-.92l-.31-1.29h-.05a3.329,3.329,0,0,1-2.09.86c-1.23,0-2.23-.59-2.23-2.48Zm-4.91-1.15a2.083,2.083,0,0,1,1.94-2.25c.92,0,1.77.82,1.55,2.25Zm10.85-3.48a3.05,3.05,0,0,0-2.46,1.82h-.13l-.14-1.67H68.69V31h1.62V26.99a3.106,3.106,0,0,1,2.36-2.51h.57V22.79Zm7.36.76a3.608,3.608,0,0,0-2.44-.87c-2.02,0-3.82,1.91-3.82,4.54a3.711,3.711,0,0,0,3.74,4.03,3.938,3.938,0,0,0,2.4-.86l-.36-1.26a3.112,3.112,0,0,1-1.93.74c-1.22,0-2.19-.8-2.19-2.69s1-3.13,2.3-3.13a2.6,2.6,0,0,1,1.76.74Zm7.85,6.71a1.413,1.413,0,0,1-.72-1.24V25.31a2.5,2.5,0,0,0-2.7-2.63,5.663,5.663,0,0,0-2.99.9l.54,1.21A3.934,3.934,0,0,1,84.3,24a1.43,1.43,0,0,1,1.49,1.58v.79a12.015,12.015,0,0,0-1.3-.09c-2.48,0-3.33,1.37-3.33,2.56a2.356,2.356,0,0,0,2.47,2.41,2.928,2.928,0,0,0,2.34-1.11h.07a2.072,2.072,0,0,0,.88,1.13l1.1-.94Zm-2.23-1.38a2,2,0,0,1-1.84,1.06,1.094,1.094,0,0,1-1.24-1.12c0-.81.63-1.38,1.77-1.38a9.856,9.856,0,0,1,1.31.1Zm8.75-5.15a4.415,4.415,0,0,0-2.72-1.05,2.344,2.344,0,0,0-2.61,2.24c0,1.11.68,1.67,2.03,2.41.99.54,1.89,1.02,1.89,1.67,0,.58-.55.92-1.27.92a3.9,3.9,0,0,1-2.27-.86l-.49,1.2a4.419,4.419,0,0,0,2.81.99c1.44,0,2.75-.75,2.75-2.25,0-1.01-.5-1.69-2.01-2.57-1.1-.65-1.91-1.03-1.91-1.64,0-.41.38-.79,1.13-.79a3.547,3.547,0,0,1,2.16.92Zm2.59-3.13v2.25l-1.62.61v.74h1.62V31h1.62V24.2h1.89V22.94H98.75V20.13Zm0,0" transform="translate(721 672)" fill="#fff"/><path d="M41.17,8.88H39.95V15h3.6V13.88H41.17Zm5.06,0H45.01V15h1.22Zm1.55,5.65a3.457,3.457,0,0,0,1.96.61c1.01,0,2.1-.5,2.1-1.77,0-.7-.41-1.29-1.4-1.87-.96-.56-1.26-.78-1.26-1.14s.39-.49.76-.49a2.731,2.731,0,0,1,1.43.49l.34-1a3.288,3.288,0,0,0-1.84-.61,1.757,1.757,0,0,0-1.96,1.6c0,.85.4,1.28,1.52,1.91.84.47,1.12.7,1.12,1.13,0,.29-.27.62-.84.62a2.445,2.445,0,0,1-1.49-.55ZM57.59,10V8.88H52.9V10h1.74v5h1.21V10Zm5.06-1.12H59.03V15h3.72V13.88h-2.5V12.44h2.16V11.32H60.25V10h2.4Zm2.57,0h-.79V15h1.22V11.07h.04L69.24,15H70V8.88H68.79v3.89h-.05Zm10.44,0H74.44V15h1.22Zm2.7,0h-.79V15h1.22V11.07h.04L82.38,15h.76V8.88H81.93v3.89h-.05ZM91.61,10V8.88H86.92V10h1.74v5h1.21V10Zm6.47-1.12H96.86v2.44H94.27V8.88H93.05V15h1.22V12.44h2.59V15h1.22Zm5.52,0H99.98V15h3.72V13.88h-2.5V12.44h2.16V11.32H101.2V10h2.4ZM111.82,15h1.3l-2.54-6.12h-.72L107.35,15h1.3l.47-1.2h2.23Zm-1.62-4.12h.06l.7,1.88h-1.45Zm8.13-.06c0-1.24-.85-1.94-2.21-1.94h-1.65V15h1.22V12.83h.51a1.987,1.987,0,0,0,2.13-2.01Zm-1.27.02a.836.836,0,0,1-.91.89h-.46V9.96h.46a.842.842,0,0,1,.91.88Zm6.49-.02c0-1.24-.85-1.94-2.21-1.94h-1.65V15h1.22V12.83h.51a1.987,1.987,0,0,0,2.13-2.01Zm-1.27.02a.836.836,0,0,1-.91.89h-.46V9.96h.46a.842.842,0,0,1,.91.88Zm0,0" transform="translate(721 672)" fill="#fff"/></g></g></svg>