<svg xmlns="http://www.w3.org/2000/svg" width="169.186" height="40.998" viewBox="0 0 169.186 40.998"><g transform="translate(-719 -659)"><path d="M159.435.5H8.368L7.921.512h-.2A12.872,12.872,0,0,0,5.739.689a6.33,6.33,0,0,0-1.806.594A6.1,6.1,0,0,0,2.4,2.4,5.908,5.908,0,0,0,1.285,3.932a6.26,6.26,0,0,0-.594,1.81A12.619,12.619,0,0,0,.515,7.719c0,.136-.007.276-.009.464V32.818c0,.187,0,.328.009.469a12.614,12.614,0,0,0,.177,1.978,6.239,6.239,0,0,0,.593,1.808A5.864,5.864,0,0,0,2.4,38.6a5.929,5.929,0,0,0,1.531,1.114,6.363,6.363,0,0,0,1.808.6,13.021,13.021,0,0,0,1.978.173c.328.007.633.011.935.011h151.9c.3,0,.616,0,.932-.011a12.865,12.865,0,0,0,1.976-.173,6.472,6.472,0,0,0,1.817-.6,5.928,5.928,0,0,0,1.532-1.117,6.045,6.045,0,0,0,1.116-1.522,6.311,6.311,0,0,0,.589-1.815,12.8,12.8,0,0,0,.182-1.966c0-.147,0-.3,0-.47V9.768c0-.558,0-.8-.008-1.12V7.721a13.027,13.027,0,0,0-.184-1.986,6.294,6.294,0,0,0-.586-1.8,6.119,6.119,0,0,0-2.648-2.649,6.442,6.442,0,0,0-1.819-.6,12.688,12.688,0,0,0-1.97-.173H161L160.546.5h-1.111Z" transform="translate(718.994 659)" stroke="#252525" stroke-width="1" fill-rule="evenodd"/><g transform="translate(0 -62)"><g transform="translate(722 721)"><path d="M16.06,7h7.87a17.278,17.278,0,0,1,5.32.44,5.524,5.524,0,0,1,3.3,3.3A16.941,16.941,0,0,1,33,16.06v7.87a16.908,16.908,0,0,1-.45,5.32,5.5,5.5,0,0,1-3.3,3.3,16.908,16.908,0,0,1-5.32.45H16.06a16.941,16.941,0,0,1-5.32-.45,5.524,5.524,0,0,1-3.3-3.3A17.278,17.278,0,0,1,7,23.93V16.06a17.312,17.312,0,0,1,.44-5.32,5.55,5.55,0,0,1,3.3-3.3A17.312,17.312,0,0,1,16.06,7Zm0,0" fill="#f43e37" fill-rule="evenodd"/><path d="M9.89,19.89a10,10,0,1,1,20,0h-2.5a7.5,7.5,0,1,0-7.5,7.5v2.5a10,10,0,0,1-10-10Zm10,6a6,6,0,1,1,6-6H23.71a3.82,3.82,0,1,0-3.82,3.82Zm0,0" fill="#fff" fill-rule="evenodd"/><path d="M42.77,25.83c1.28,0,1.91-.69,1.91-2.17,0-1.5-.63-2.08-1.87-2.08h-.62v4.25ZM39.54,31.5V19.36h3.27c2.94,0,4.52,1.41,4.52,4.22,0,3.14-1.87,4.44-4.45,4.44H42.2V31.5Zm0,0" fill="#fff" fill-rule="evenodd"/><path d="M51.44,24.46c-.77,0-1.26.83-1.26,2.53,0,1.72.5,2.57,1.3,2.57.77,0,1.27-.85,1.27-2.55,0-1.72-.52-2.55-1.31-2.55Zm.02,7.22c-2.03,0-3.65-1.58-3.65-4.65,0-3.11,1.63-4.7,3.67-4.7,2.01,0,3.64,1.59,3.64,4.66,0,3.09-1.63,4.69-3.66,4.69Zm0,0" fill="#fff" fill-rule="evenodd"/><path d="M59.82,31.64c-2.4,0-3.81-1.68-3.81-4.61,0-2.86,1.45-4.67,3.94-4.67a5.092,5.092,0,0,1,1.98.39l-.38,2.18a3.358,3.358,0,0,0-1.39-.35c-1.15,0-1.75,1.01-1.75,2.41,0,1.53.6,2.43,1.79,2.43a4.1,4.1,0,0,0,1.41-.33l.38,2.1A5.75,5.75,0,0,1,59.82,31.64Zm0,0" fill="#fff" fill-rule="evenodd"/><path d="M65.58,27.2v4.3h-2.5V19h2.5v7.4l2.03-3.88h2.73l-2.42,4.3,2.49,4.68H67.64Zm0,0" fill="#fff" fill-rule="evenodd"/><path d="M75.16,26.4c-.05-1.35-.45-2.15-1.2-2.15-.78,0-1.18.84-1.23,2.15Zm-4.75.65c0-3.09,1.57-4.72,3.55-4.72,2.09,0,3.51,1.61,3.51,4.77v.81H72.73a1.735,1.735,0,0,0,1.86,1.84,5.324,5.324,0,0,0,2.14-.54l.44,1.77a6.334,6.334,0,0,1-2.84.66c-2.18,0-3.92-1.16-3.92-4.59Zm0,0" fill="#fff" fill-rule="evenodd"/><path d="M79.23,28.81V24.58h-.96V22.52h.96V20.16h2.48v2.36H83.6v2.06H81.71v3.87a.941.941,0,0,0,1.07,1.06,3.186,3.186,0,0,0,.82-.12v2.04a5.247,5.247,0,0,1-1.53.19c-1.89,0-2.84-.78-2.84-2.81Zm0,0" fill="#fff" fill-rule="evenodd"/><path d="M92.24,31.64c-3.13,0-5.09-2.01-5.09-6.19,0-4.02,2.01-6.22,5.11-6.22a7.062,7.062,0,0,1,2.56.46l-.41,2.47a4.738,4.738,0,0,0-1.89-.44c-1.66,0-2.64,1.32-2.64,3.7,0,2.44.93,3.72,2.69,3.72a4.644,4.644,0,0,0,1.85-.41l.44,2.39a6.948,6.948,0,0,1-2.62.52Zm0,0" fill="#fff" fill-rule="evenodd"/><path d="M100.12,29.59V27.46a4.143,4.143,0,0,0-.81-.07,1.409,1.409,0,0,0-1.02.3,1.388,1.388,0,0,0-.29.97c0,.9.39,1.26,1.08,1.26a2.053,2.053,0,0,0,1.04-.33Zm-2.07,2.03c-1.39,0-2.37-.9-2.37-2.84a2.827,2.827,0,0,1,.7-2.05,3.076,3.076,0,0,1,2.36-.78,6.693,6.693,0,0,1,1.38.16v-.5c0-.77-.35-1.18-1.28-1.18a5.816,5.816,0,0,0-2.18.5l-.47-1.91a8.347,8.347,0,0,1,3.1-.64c2.25,0,3.27.97,3.27,3.04v4.49l.19,1.59h-2.17l-.31-.78a3.138,3.138,0,0,1-2.22.9Zm0,0" fill="#fff" fill-rule="evenodd"/><path d="M107.03,31.66a6.949,6.949,0,0,1-3.29-.83l.5-2.03a5.933,5.933,0,0,0,2.76.83c.63,0,.98-.28.98-.66s-.21-.55-1.41-1.04c-1.67-.68-2.5-1.32-2.5-2.83,0-1.66,1.14-2.74,3.13-2.74a6.3,6.3,0,0,1,2.79.66l-.5,2.03a5.167,5.167,0,0,0-2.29-.66c-.53,0-.82.23-.82.59s.19.52,1.37,1.01c1.88.74,2.53,1.44,2.53,2.86,0,1.87-1.3,2.81-3.25,2.81Zm0,0" fill="#fff" fill-rule="evenodd"/><path d="M112.05,28.81V24.58h-.96V22.52h.96V20.16h2.48v2.36h1.89v2.06h-1.89v3.87a.934.934,0,0,0,1.06,1.06,3.2,3.2,0,0,0,.83-.12v2.04a5.3,5.3,0,0,1-1.53.19c-1.89,0-2.84-.78-2.84-2.81Zm0,0" fill="#fff" fill-rule="evenodd"/><path d="M120.81,31.66a6.89,6.89,0,0,1-3.29-.83l.5-2.03a5.9,5.9,0,0,0,2.75.83c.64,0,.98-.28.98-.66s-.2-.55-1.41-1.04c-1.67-.68-2.49-1.32-2.49-2.83,0-1.66,1.13-2.74,3.13-2.74a6.367,6.367,0,0,1,2.79.66l-.5,2.03a5.2,5.2,0,0,0-2.29-.66c-.54,0-.83.23-.83.59s.19.52,1.38,1.01c1.87.74,2.53,1.44,2.53,2.86,0,1.87-1.31,2.81-3.25,2.81Zm0,0" fill="#fff" fill-rule="evenodd"/></g><path d="M39.76,8.83h.97v6.32h3.64V16H39.76Zm5.45,1.96h.89V16h-.89Zm0-1.96h.89v.99h-.89Zm2.74,5.53a1.292,1.292,0,0,0,.22.67,1.364,1.364,0,0,0,1.15.43,1.712,1.712,0,0,0,.86-.21.709.709,0,0,0,.37-.66.544.544,0,0,0-.3-.51,2.719,2.719,0,0,0-.75-.25l-.7-.18a3.3,3.3,0,0,1-.98-.37,1.116,1.116,0,0,1-.57-.99,1.511,1.511,0,0,1,.54-1.2,2.135,2.135,0,0,1,1.43-.46,1.99,1.99,0,0,1,1.71.7,1.527,1.527,0,0,1,.32.94h-.83a1.132,1.132,0,0,0-.21-.54,1.367,1.367,0,0,0-1.05-.34,1.235,1.235,0,0,0-.76.19.578.578,0,0,0-.25.5.627.627,0,0,0,.33.55,1.984,1.984,0,0,0,.58.21l.58.14a4.549,4.549,0,0,1,1.27.45,1.165,1.165,0,0,1,.51,1.06,1.589,1.589,0,0,1-.53,1.2,2.238,2.238,0,0,1-1.61.51,2.162,2.162,0,0,1-1.65-.53,1.952,1.952,0,0,1-.52-1.31ZM52.6,9.31h.89v1.46h.84v.72h-.84V14.9a.368.368,0,0,0,.19.37.9.9,0,0,0,.34.05h.14c.05,0,.1-.01.17-.01V16a1.647,1.647,0,0,1-.32.06,1.942,1.942,0,0,1-.35.02.968.968,0,0,1-.84-.31,1.446,1.446,0,0,1-.22-.82V11.49h-.7v-.72h.7Zm4.78,1.34a2.452,2.452,0,0,1,1.08.26,2,2,0,0,1,.8.68,2.418,2.418,0,0,1,.35.92,6.248,6.248,0,0,1,.08,1.16H55.86a2.2,2.2,0,0,0,.37,1.27,1.271,1.271,0,0,0,1.09.48,1.41,1.41,0,0,0,1.1-.45,1.456,1.456,0,0,0,.33-.61h.87a1.917,1.917,0,0,1-.23.64,2.244,2.244,0,0,1-.43.58,2.061,2.061,0,0,1-1,.53,3.082,3.082,0,0,1-.71.08,2.223,2.223,0,0,1-1.66-.71,2.792,2.792,0,0,1-.68-1.99,2.991,2.991,0,0,1,.69-2.05,2.257,2.257,0,0,1,1.78-.79Zm1.41,2.32a2.4,2.4,0,0,0-.25-.92,1.287,1.287,0,0,0-1.21-.63,1.37,1.37,0,0,0-1.02.44,1.676,1.676,0,0,0-.43,1.11Zm1.98-2.2h.83v.74a2.506,2.506,0,0,1,.79-.66,2.139,2.139,0,0,1,.92-.2,1.531,1.531,0,0,1,1.51.78,2.816,2.816,0,0,1,.21,1.22V16h-.89V12.7a1.892,1.892,0,0,0-.14-.77.872.872,0,0,0-.85-.49,1.867,1.867,0,0,0-.52.07,1.258,1.258,0,0,0-.63.43,1.329,1.329,0,0,0-.29.53,4.014,4.014,0,0,0-.06.79V16h-.88Zm10.41,4.66a1.211,1.211,0,0,0,1.2-.66,3.241,3.241,0,0,0,.33-1.47,2.541,2.541,0,0,0-.24-1.19,1.319,1.319,0,0,0-1.28-.72,1.258,1.258,0,0,0-1.17.61,2.912,2.912,0,0,0-.37,1.49,2.523,2.523,0,0,0,.37,1.39,1.28,1.28,0,0,0,1.16.55Zm.04-4.81a2.378,2.378,0,0,1,1.71.67,2.658,2.658,0,0,1,.69,1.99,3.407,3.407,0,0,1-.61,2.09,2.228,2.228,0,0,1-1.91.82,2.132,2.132,0,0,1-1.71-.73,2.857,2.857,0,0,1-.64-1.96,3.1,3.1,0,0,1,.67-2.1,2.247,2.247,0,0,1,1.8-.78Zm3.45.15h.83v.74a2.506,2.506,0,0,1,.79-.66,2.139,2.139,0,0,1,.92-.2,1.522,1.522,0,0,1,1.51.78,2.816,2.816,0,0,1,.21,1.22V16h-.89V12.7a1.892,1.892,0,0,0-.14-.77.872.872,0,0,0-.85-.49,1.867,1.867,0,0,0-.52.07,1.258,1.258,0,0,0-.63.43,1.329,1.329,0,0,0-.29.53,4.014,4.014,0,0,0-.06.79V16h-.88Zm0,0" transform="translate(722 721)" fill="#fff"/></g></g></svg>