<svg xmlns="http://www.w3.org/2000/svg" width="169.186" height="40.998" viewBox="0 0 169.186 40.998"><g transform="translate(-1139.5 -714)"><path d="M159.435.5H8.368L7.921.512h-.2A12.872,12.872,0,0,0,5.739.689a6.33,6.33,0,0,0-1.806.594A6.1,6.1,0,0,0,2.4,2.4,5.908,5.908,0,0,0,1.285,3.932a6.26,6.26,0,0,0-.594,1.81A12.619,12.619,0,0,0,.515,7.719c0,.136-.007.276-.009.464V32.818c0,.187,0,.328.009.469a12.614,12.614,0,0,0,.177,1.978,6.239,6.239,0,0,0,.593,1.808A5.864,5.864,0,0,0,2.4,38.6a5.929,5.929,0,0,0,1.531,1.114,6.363,6.363,0,0,0,1.808.6,13.021,13.021,0,0,0,1.978.173c.328.007.633.011.935.011h151.9c.3,0,.616,0,.932-.011a12.865,12.865,0,0,0,1.976-.173,6.472,6.472,0,0,0,1.817-.6,5.928,5.928,0,0,0,1.532-1.117,6.045,6.045,0,0,0,1.116-1.522,6.311,6.311,0,0,0,.589-1.815,12.8,12.8,0,0,0,.182-1.966c0-.147,0-.3,0-.47V9.768c0-.558,0-.8-.008-1.12V7.721a13.027,13.027,0,0,0-.184-1.986,6.294,6.294,0,0,0-.586-1.8,6.119,6.119,0,0,0-2.648-2.649,6.442,6.442,0,0,0-1.819-.6,12.688,12.688,0,0,0-1.97-.173H161L160.546.5h-1.111Z" transform="translate(1139.494 714)" stroke="#252525" stroke-width="1" fill-rule="evenodd"/><g transform="translate(0 0)"><path d="M5.492-4.6H2.82V0H1.313V-11.375H5.078a4.457,4.457,0,0,1,2.957.875A3.148,3.148,0,0,1,9.07-7.953,3.062,3.062,0,0,1,8.5-6.1a3.428,3.428,0,0,1-1.6,1.18L9.57-.094V0H7.961ZM2.82-5.828h2.3A2.6,2.6,0,0,0,6.9-6.407a1.959,1.959,0,0,0,.66-1.55,2.062,2.062,0,0,0-.629-1.62,2.663,2.663,0,0,0-1.816-.571H2.82Zm11.7.758a7.053,7.053,0,0,1-2.809-1.363,2.6,2.6,0,0,1-.879-2,2.751,2.751,0,0,1,1.074-2.223,4.269,4.269,0,0,1,2.793-.879,4.66,4.66,0,0,1,2.09.453,3.436,3.436,0,0,1,1.422,1.25,3.2,3.2,0,0,1,.5,1.742H17.211a2.08,2.08,0,0,0-.656-1.627A2.669,2.669,0,0,0,14.7-10.3a2.732,2.732,0,0,0-1.73.489,1.632,1.632,0,0,0-.621,1.358,1.468,1.468,0,0,0,.59,1.178,5.785,5.785,0,0,0,2.008.88,9.316,9.316,0,0,1,2.219.88A3.367,3.367,0,0,1,18.355-4.4a2.861,2.861,0,0,1,.387,1.508A2.658,2.658,0,0,1,17.664-.676a4.6,4.6,0,0,1-2.883.832,5.347,5.347,0,0,1-2.187-.449,3.681,3.681,0,0,1-1.566-1.23A3,3,0,0,1,10.477-3.3h1.508a1.959,1.959,0,0,0,.762,1.629,3.207,3.207,0,0,0,2.035.6,2.948,2.948,0,0,0,1.82-.484,1.573,1.573,0,0,0,.633-1.32,1.545,1.545,0,0,0-.586-1.293A6.755,6.755,0,0,0,14.523-5.07Zm9.492,0a7.053,7.053,0,0,1-2.809-1.363,2.6,2.6,0,0,1-.879-2A2.751,2.751,0,0,1,21.4-10.652a4.269,4.269,0,0,1,2.793-.879,4.66,4.66,0,0,1,2.09.453,3.436,3.436,0,0,1,1.422,1.25,3.2,3.2,0,0,1,.5,1.742H26.7a2.08,2.08,0,0,0-.656-1.627A2.669,2.669,0,0,0,24.2-10.3a2.732,2.732,0,0,0-1.73.489,1.632,1.632,0,0,0-.621,1.358,1.468,1.468,0,0,0,.59,1.178,5.785,5.785,0,0,0,2.008.88,9.316,9.316,0,0,1,2.219.88A3.367,3.367,0,0,1,27.848-4.4a2.861,2.861,0,0,1,.387,1.508A2.658,2.658,0,0,1,27.156-.676a4.6,4.6,0,0,1-2.883.832,5.347,5.347,0,0,1-2.187-.449,3.681,3.681,0,0,1-1.566-1.23A3,3,0,0,1,19.969-3.3h1.508a1.959,1.959,0,0,0,.762,1.629,3.207,3.207,0,0,0,2.035.6,2.948,2.948,0,0,0,1.82-.484,1.573,1.573,0,0,0,.633-1.32,1.545,1.545,0,0,0-.586-1.293A6.755,6.755,0,0,0,24.016-5.07Zm16.375.047H35.617V0h-1.5V-11.375h7.047v1.227H35.617v3.9h4.773ZM46.242.156a3.693,3.693,0,0,1-2.8-1.129,4.19,4.19,0,0,1-1.078-3.02v-.266a5.073,5.073,0,0,1,.48-2.246,3.748,3.748,0,0,1,1.344-1.547,3.378,3.378,0,0,1,1.871-.559,3.166,3.166,0,0,1,2.563,1.086,4.7,4.7,0,0,1,.914,3.109v.6H43.813a3,3,0,0,0,.73,2.02,2.3,2.3,0,0,0,1.777.77,2.517,2.517,0,0,0,1.3-.312,3.259,3.259,0,0,0,.93-.828l.883.688A3.55,3.55,0,0,1,46.242.156Zm-.18-7.578a1.928,1.928,0,0,0-1.469.637A3.1,3.1,0,0,0,43.859-5h4.234v-.109A2.753,2.753,0,0,0,47.5-6.816,1.815,1.815,0,0,0,46.063-7.422ZM54.719.156a3.693,3.693,0,0,1-2.8-1.129,4.19,4.19,0,0,1-1.078-3.02v-.266a5.073,5.073,0,0,1,.48-2.246,3.748,3.748,0,0,1,1.344-1.547,3.378,3.378,0,0,1,1.871-.559A3.166,3.166,0,0,1,57.1-7.523a4.7,4.7,0,0,1,.914,3.109v.6H52.289a3,3,0,0,0,.73,2.02,2.3,2.3,0,0,0,1.777.77,2.517,2.517,0,0,0,1.3-.312,3.259,3.259,0,0,0,.93-.828l.883.688A3.55,3.55,0,0,1,54.719.156Zm-.18-7.578a1.928,1.928,0,0,0-1.469.637A3.1,3.1,0,0,0,52.336-5H56.57v-.109a2.753,2.753,0,0,0-.594-1.707A1.815,1.815,0,0,0,54.539-7.422Zm4.8,3.125a4.952,4.952,0,0,1,.922-3.129,2.915,2.915,0,0,1,2.414-1.184,2.932,2.932,0,0,1,2.352,1.016V-12h1.445V0H65.141l-.07-.906A2.943,2.943,0,0,1,62.656.156a2.887,2.887,0,0,1-2.395-1.2,5.008,5.008,0,0,1-.926-3.141Zm1.445.164a3.749,3.749,0,0,0,.594,2.25,1.92,1.92,0,0,0,1.641.813A2.108,2.108,0,0,0,65.023-2.3V-6.187a2.125,2.125,0,0,0-1.992-1.2,1.929,1.929,0,0,0-1.656.82A4.128,4.128,0,0,0,60.781-4.133Z" transform="translate(1186 740)" fill="#fff"/><g transform="translate(1155 722)"><rect width="24" height="24" rx="4" fill="orange"/><circle cx="3" cy="3" r="3" transform="translate(3 15)" fill="#fff"/><path d="M1,6a9,9,0,0,1,9,9h3A12,12,0,0,0,1,3Z" transform="translate(2 6)" fill="#fff"/><path d="M1,4A15,15,0,0,1,16,19h3A18,18,0,0,0,1,1Z" transform="translate(2 2)" fill="#fff"/></g></g></g></svg>