<svg xmlns="http://www.w3.org/2000/svg" width="169.205" height="41" viewBox="0 0 169.205 41"><g transform="translate(0)"><g transform="translate(0.5 0.5)"><path d="M159.435.5H9.15l-.5,0L8.368.5,7.921.512l-.2,0A12.872,12.872,0,0,0,5.739.689a6.33,6.33,0,0,0-1.806.594A6.1,6.1,0,0,0,2.4,2.4,5.908,5.908,0,0,0,1.285,3.932,6.26,6.26,0,0,0,.691,5.742,12.619,12.619,0,0,0,.515,7.719c0,.136-.007.276-.009.464,0,.083,0,.083,0,.167,0,.153,0,.153,0,.3V32.129c0,.113,0,.113,0,.218,0,.155,0,.155,0,.307,0,.082,0,.082,0,.164,0,.187.005.328.009.469a12.614,12.614,0,0,0,.177,1.978,6.239,6.239,0,0,0,.593,1.808A5.864,5.864,0,0,0,2.4,38.6a5.929,5.929,0,0,0,1.531,1.114,6.363,6.363,0,0,0,1.808.6,13.021,13.021,0,0,0,1.978.173c.328.007.633.011.935.011l.5,0H159.991l.557,0c.3,0,.616,0,.932-.011a12.864,12.864,0,0,0,1.976-.173,6.472,6.472,0,0,0,1.817-.6,5.928,5.928,0,0,0,1.532-1.117,6.045,6.045,0,0,0,1.116-1.522,6.31,6.31,0,0,0,.589-1.815,12.807,12.807,0,0,0,.182-1.966c0-.147,0-.3,0-.47v-.48l0-.222c0-.245,0-.441,0-.889V9.768c0-.558,0-.8-.008-1.12V8.177c0-.172,0-.323,0-.456a13.025,13.025,0,0,0-.184-1.986,6.294,6.294,0,0,0-.586-1.8,6.119,6.119,0,0,0-2.648-2.649,6.442,6.442,0,0,0-1.819-.6,12.688,12.688,0,0,0-1.97-.173l-.181,0-.292,0L160.546.5,160,.5Z" transform="translate(-0.5 -0.5)" stroke="#252525" stroke-width="1" fill-rule="evenodd"/><path d="M89.824,18.934a1.117,1.117,0,0,0,1.536-.394A1.13,1.13,0,0,0,90.969,17c-4.447-2.655-11.485-2.9-15.718-1.612A1.127,1.127,0,0,0,75.9,17.54C79.589,16.415,85.961,16.627,89.824,18.934ZM89.7,22.351a.943.943,0,0,0-.307-1.292,17.4,17.4,0,0,0-13.463-1.6.939.939,0,0,0,.543,1.8,15.655,15.655,0,0,1,11.943,1.4A.932.932,0,0,0,89.7,22.351Zm-1.466,3.282a.754.754,0,0,0-.248-1.033c-3.159-1.941-7.075-2.393-11.641-1.343a.751.751,0,0,0,.333,1.464c4.172-.958,7.714-.568,10.529,1.162A.744.744,0,0,0,88.231,25.632ZM82.735,8.25A12.051,12.051,0,1,1,70.75,20.3,12.018,12.018,0,0,1,82.735,8.25Zm20.622,11.125c2.521.617,3.549,1.574,3.549,3.3,0,2.047-1.556,3.37-3.963,3.37a6.733,6.733,0,0,1-4.562-1.759.136.136,0,0,1-.013-.189L99.5,22.746a.134.134,0,0,1,.093-.048.142.142,0,0,1,.1.033,4.739,4.739,0,0,0,3.3,1.369c1.087,0,1.763-.473,1.763-1.234,0-.687-.334-1.071-2.315-1.53-2.326-.565-3.672-1.3-3.672-3.367,0-1.929,1.561-3.277,3.794-3.277a6.091,6.091,0,0,1,3.974,1.384.136.136,0,0,1,.026.185l-1.01,1.432a.134.134,0,0,1-.089.056.136.136,0,0,1-.1-.025,4.689,4.689,0,0,0-2.828-1.081c-.963,0-1.61.465-1.61,1.157C100.919,18.531,101.287,18.879,103.357,19.375ZM114.1,21.694a2.266,2.266,0,0,0-2.176-2.481,2.31,2.31,0,0,0-2.223,2.481,2.31,2.31,0,0,0,2.223,2.481A2.241,2.241,0,0,0,114.1,21.694Zm-1.748-4.371c1.939,0,3.9,1.5,3.9,4.371s-1.963,4.37-3.9,4.37a3.32,3.32,0,0,1-2.605-1.186v3.343a.136.136,0,0,1-.135.137h-1.853a.136.136,0,0,1-.135-.137V17.63a.136.136,0,0,1,.135-.137h1.853a.136.136,0,0,1,.135.137v.953A3.24,3.24,0,0,1,112.353,17.323Zm8.933,6.867a2.314,2.314,0,0,0,2.315-2.465,2.371,2.371,0,0,0-2.345-2.5,2.308,2.308,0,0,0-2.3,2.466A2.364,2.364,0,0,0,121.286,24.19Zm0-6.867a4.379,4.379,0,1,1-4.453,4.4A4.358,4.358,0,0,1,121.286,17.323Zm9.771.17a.135.135,0,0,1,.134.137v1.6a.135.135,0,0,1-.134.136h-2.039v3.851c0,.608.265.879.859.879a2.323,2.323,0,0,0,1.087-.264.136.136,0,0,1,.132.006.137.137,0,0,1,.065.116v1.525a.137.137,0,0,1-.069.118,3.365,3.365,0,0,1-1.735.434,2.21,2.21,0,0,1-2.464-2.523V19.368H126a.136.136,0,0,1-.134-.136v-1.6a.136.136,0,0,1,.134-.137h.891V15.4a.136.136,0,0,1,.136-.136h1.852a.136.136,0,0,1,.135.136v2.1Zm7.1.008h3.165a.134.134,0,0,1,.126.088l2.165,5.679,1.975-5.675a.137.137,0,0,1,.128-.092h1.929a.136.136,0,0,1,.112.059.139.139,0,0,1,.014.127l-3.214,8.352c-.668,1.724-1.424,2.365-2.792,2.365a3.883,3.883,0,0,1-1.978-.509.136.136,0,0,1-.058-.176l.628-1.385a.134.134,0,0,1,.189-.063,2.127,2.127,0,0,0,1.022.291c.4,0,.7-.134,1-.8l-2.649-6.389h-1.73v6.391a.137.137,0,0,1-.136.136H136.2a.136.136,0,0,1-.135-.136V19.368h-.89a.136.136,0,0,1-.135-.136V17.622a.136.136,0,0,1,.135-.136h.89v-.394c0-1.832.9-2.8,2.616-2.8a5.065,5.065,0,0,1,1.54.222.137.137,0,0,1,.1.131v1.57a.136.136,0,0,1-.056.111.134.134,0,0,1-.122.019,3.112,3.112,0,0,0-1.044-.194c-.647,0-.936.338-.936,1.1Zm-4.118-.008a.137.137,0,0,1,.135.137v8.129a.137.137,0,0,1-.135.136H132.19a.136.136,0,0,1-.135-.136V17.63a.136.136,0,0,1,.135-.137Zm-.918-3.7a1.336,1.336,0,1,1-1.329,1.336A1.332,1.332,0,0,1,133.125,13.792Zm16.309,4.51h-.339v.435h.339c.169,0,.271-.083.271-.218S149.6,18.3,149.434,18.3Zm.221.621.368.519h-.311l-.332-.476h-.285v.476h-.26V18.066h.61c.318,0,.527.163.527.439A.41.41,0,0,1,149.655,18.923Zm-.289-1.315a1.184,1.184,0,1,0,1.166,1.18A1.169,1.169,0,0,0,149.365,17.608Zm-.007,2.5a1.315,1.315,0,1,1,1.311-1.319A1.3,1.3,0,0,1,149.358,20.107Z" transform="translate(1.301 -0.301)" fill="#1ed760" fill-rule="evenodd"/><path d="M19.708,23.062H15.75V16.881h1.2v5.03h2.755Zm2.869,0H21.357V16.881h1.221Zm6.391-4.708-1.081.331a1.055,1.055,0,0,0-1.125-.872.875.875,0,0,0-.968.785c0,.34.218.61.671.7l.863.166a1.886,1.886,0,0,1,1.726,1.822,2.028,2.028,0,0,1-2.232,1.909,2.254,2.254,0,0,1-2.458-1.935l1.116-.3a1.24,1.24,0,0,0,1.351,1.159c.645,0,1-.323,1-.758,0-.357-.27-.636-.75-.732l-.863-.174a1.8,1.8,0,0,1-1.622-1.77,2.047,2.047,0,0,1,2.153-1.935A2.035,2.035,0,0,1,28.968,18.354Zm6.513-.331H33.529v5.039H32.317V18.023H30.364V16.881h5.117ZM41,23.062H37.13V16.881H41v1.133H38.333v1.412h2.415V20.5H38.333v1.43H41Zm7.228,0H46.965l-2.807-4.385v4.385h-1.2V16.881h1.5l2.572,4.089V16.881h1.2Zm5.834-3.095a1.935,1.935,0,1,0,3.862,0,1.935,1.935,0,1,0-3.862,0Zm-1.247.009a3.178,3.178,0,1,1,6.355,0,3.178,3.178,0,1,1-6.355,0Zm13.5,3.086H65.049l-2.807-4.385v4.385h-1.2V16.881h1.5l2.572,4.089V16.881h1.2Z" transform="translate(-0.109 -0.083)" fill="#fff" fill-rule="evenodd"/></g></g></svg>