<svg xmlns="http://www.w3.org/2000/svg" width="169.186" height="40.998" viewBox="0 0 169.186 40.998"><g transform="translate(-719 -605)"><path d="M159.435.5H8.368L7.921.512h-.2A12.872,12.872,0,0,0,5.739.689a6.33,6.33,0,0,0-1.806.594A6.1,6.1,0,0,0,2.4,2.4,5.908,5.908,0,0,0,1.285,3.932a6.26,6.26,0,0,0-.594,1.81A12.619,12.619,0,0,0,.515,7.719c0,.136-.007.276-.009.464V32.818c0,.187,0,.328.009.469a12.614,12.614,0,0,0,.177,1.978,6.239,6.239,0,0,0,.593,1.808A5.864,5.864,0,0,0,2.4,38.6a5.929,5.929,0,0,0,1.531,1.114,6.363,6.363,0,0,0,1.808.6,13.021,13.021,0,0,0,1.978.173c.328.007.633.011.935.011h151.9c.3,0,.616,0,.932-.011a12.865,12.865,0,0,0,1.976-.173,6.472,6.472,0,0,0,1.817-.6,5.928,5.928,0,0,0,1.532-1.117,6.045,6.045,0,0,0,1.116-1.522,6.311,6.311,0,0,0,.589-1.815,12.8,12.8,0,0,0,.182-1.966c0-.147,0-.3,0-.47V9.768c0-.558,0-.8-.008-1.12V7.721a13.027,13.027,0,0,0-.184-1.986,6.294,6.294,0,0,0-.586-1.8,6.119,6.119,0,0,0-2.648-2.649,6.442,6.442,0,0,0-1.819-.6,12.688,12.688,0,0,0-1.97-.173H161L160.546.5h-1.111Z" transform="translate(718.994 605)" stroke="#252525" stroke-width="1" fill-rule="evenodd"/><g transform="translate(-1 0)"><path d="M19.708,23.062H15.75V16.881h1.2v5.03h2.755Zm2.869,0h-1.22V16.881h1.221Zm6.391-4.708-1.081.331a1.055,1.055,0,0,0-1.125-.872.875.875,0,0,0-.968.785c0,.34.218.61.671.7l.863.166a1.886,1.886,0,0,1,1.726,1.822A2.028,2.028,0,0,1,26.822,23.2a2.254,2.254,0,0,1-2.458-1.935l1.116-.3a1.24,1.24,0,0,0,1.351,1.159c.645,0,1-.323,1-.758,0-.357-.27-.636-.75-.732l-.863-.174a1.8,1.8,0,0,1-1.622-1.77,2.047,2.047,0,0,1,2.153-1.935,2.035,2.035,0,0,1,2.219,1.6Zm6.513-.331H33.529v5.039H32.317V18.023H30.364V16.881h5.117ZM41,23.062H37.13V16.881H41v1.133H38.333v1.412h2.415V20.5H38.333v1.43H41Zm7.228,0H46.965l-2.807-4.385v4.385h-1.2V16.881h1.5L47.03,20.97V16.881h1.2Zm5.834-3.095a1.935,1.935,0,1,0,3.862,0,1.935,1.935,0,1,0-3.862,0Zm-1.247.009a3.178,3.178,0,1,1,3.178,3.178,3.177,3.177,0,0,1-3.178-3.178Zm13.5,3.086H65.049l-2.807-4.385v4.385h-1.2V16.881h1.5l2.572,4.089V16.881h1.2Z" transform="translate(716.25 605.263)" fill="#fff" fill-rule="evenodd"/><g transform="translate(801.208 608.575)"><path d="M324.156,1.425h13.369V9.439H324.156Z" transform="translate(-277.625 0)" fill="#eb8923"/><path d="M216.88,30.209h13.369v4.007H216.88V30.209Z" transform="translate(-185.237 -24.789)" fill="#fac712"/><path d="M109.513,14.315h13.369v6.213H109.513Z" transform="translate(-92.771 -11.101)" fill="#612268"/><path d="M1.792,43.453H15.223v2.181H1.792Z" transform="translate(0 -36.195)" fill="#3199cd"/><path d="M431.436,36.036h13.418v3.2H431.436Z" transform="translate(-370.016 -29.808)" fill="#c33626"/><path d="M324.156,170.95h13.369v4.375H324.156Z" transform="translate(-277.625 -145.997)" fill="#eb8923"/><path d="M216.88,170.95h13.369v7.3H216.88v-7.3Z" transform="translate(-185.237 -145.997)" fill="#fac712"/><path d="M109.513,170.95h13.369v4.375H109.513Z" transform="translate(-92.771 -145.997)" fill="#612268"/><path d="M1.792,170.95H15.223v6.066H1.792Z" transform="translate(0 -145.997)" fill="#3199cd"/><path d="M431.436,170.95h13.418v2.377H431.436Z" transform="translate(-370.016 -145.997)" fill="#c33626"/><path d="M13.827,87.626V79.685h-3V77.393H19.61v2.279H16.584v7.941H13.827Zm-8.088.086a6.979,6.979,0,0,1-3.884-1.1l-.061-.061L2.6,84.06l.123.123a4.96,4.96,0,0,0,3.161,1.177c1.348,0,1.532-.367,1.532-.723,0-.65-.882-.883-1.9-1.152-1.507-.4-3.394-.919-3.394-3.076,0-2.022,1.446-3.137,4.081-3.137a4.444,4.444,0,0,1,3.983,2.047l.037.086L8.092,80.751l-.061-.086a2.328,2.328,0,0,0-1.985-1.042c-1.029,0-1.029.466-1.029.613,0,.588.833.821,1.8,1.1,1.556.417,3.493.956,3.493,3.2,0,2.083-1.446,3.113-4.411,3.186H5.727Zm15.318-.086V77.393h2.769V87.626Zm7.218,0V79.685h-2.99V77.393h8.774v2.279H31.031v7.941H28.274Zm23.405,0V83.692H47.745v3.934h-2.77V77.393h2.77v4.093h3.921V77.393h2.782V87.626Zm-11.985.1c-3.5,0-5.441-1.875-5.441-5.269,0-3.186,2.083-5.147,5.441-5.147,3.48,0,4.166,1.961,4.191,2.046l.024.073-2.144,1.348-.061-.1a2.419,2.419,0,0,0-2.01-1.042c-1.764,0-2.622.919-2.622,2.818,0,1.863.931,2.917,2.622,2.941h.037a2.717,2.717,0,0,0,2-1.054l.049-.086,2.145,1.311-.037.086c-.037.086-.821,2.083-4.191,2.083v-.012h0Zm16.224-.1V77.393h8.063v2.218H58.689v1.838H61.9v2.1H58.689v1.863h5.294v2.218Zm14.215-5.208H68.1V79.611h2.035c1.1,0,1.642.454,1.642,1.4S71.236,82.418,70.134,82.418Zm2.5,1.666a3.324,3.324,0,0,0,1.777-3.162c0-2.279-1.52-3.529-4.277-3.529h-4.8V87.626H68.1v-2.99h1.814l1.679,2.99h3.259l-2.206-3.553Z" transform="translate(-0.001 -65.32)" fill="#fff"/></g><rect width="1" height="31" transform="translate(792 610)" fill="#fff"/></g></g></svg>