
<svg xmlns="http://www.w3.org/2000/svg" xmlns:xlink="http://www.w3.org/1999/xlink" width="400" height="100" viewBox="0 0 400 100"><defs><linearGradient id="a" x1="0.5" x2="0.5" y2="1" gradientUnits="objectBoundingBox"><stop offset="0" stop-color="#51ab6d"/><stop offset="1" stop-color="#44985e"/></linearGradient><clipPath id="c"><rect width="400" height="100"/></clipPath></defs><g id="b" clip-path="url(#c)"><rect width="400" height="100" rx="6" fill="url(#a)"/><g transform="translate(-1.184 -15.1)"><g transform="translate(-20 2)"><path d="M68.851,92.692c-2.352-.841-2.857-1.984-3.821-8.684-1.122-7.787-1.367-12.608-.718-14.135.862-2.024,3.2-3.172,6.473-3.185,3.246-.013,5.606,1.146,6.473,3.185.652,1.524.407,6.347-.715,14.135-.762,5.44-1.183,6.815-2.234,7.74a5.4,5.4,0,0,1-5.44.946ZM58.8,84.7A27.444,27.444,0,0,1,43.585,64.953a36.394,36.394,0,0,1-.105-9.987,27.685,27.685,0,0,1,7.2-14.14,27.79,27.79,0,0,1,47.466,14.2,38.813,38.813,0,0,1,.026,9.409,27.942,27.942,0,0,1-10.644,17.4c-2,1.509-6.886,4.142-7.674,4.142-.289,0-.315-.3-.184-1.511.237-1.945.473-2.35,1.577-2.812a25.642,25.642,0,0,0,6.6-4.715,25.113,25.113,0,0,0,6.6-11.617,30.859,30.859,0,0,0-.158-11.512A24.517,24.517,0,0,0,75.808,36.229a31,31,0,0,0-9.856,0A24.71,24.71,0,0,0,47.318,54.39a33.344,33.344,0,0,0,0,10.96A25.171,25.171,0,0,0,57.8,80.173a22.708,22.708,0,0,0,2.707,1.551c1.1.473,1.34.867,1.551,2.812.131,1.183.105,1.524-.184,1.524A21.582,21.582,0,0,1,58.934,84.8Zm.105-10.692a19.731,19.731,0,0,1-6.15-9.845,21.779,21.779,0,0,1,.026-8.936,19.284,19.284,0,0,1,12.51-13.2,22.724,22.724,0,0,1,9.593-.347c9.146,2.037,15.638,11.2,14.376,20.282a18.529,18.529,0,0,1-3.995,9.462c-1.1,1.411-3.785,3.779-4.258,3.779a6.709,6.709,0,0,1-.158-1.982V71.235l1.367-1.63a14.964,14.964,0,0,0-.841-20.448,14.267,14.267,0,0,0-7.964-4.092,10.167,10.167,0,0,0-4.757-.026,14.43,14.43,0,0,0-8.253,4.126,14.926,14.926,0,0,0-.867,20.44l1.356,1.63v2a5.286,5.286,0,0,1-.194,2,9.6,9.6,0,0,1-1.682-1.183Zm9.12-10.731A6.113,6.113,0,0,1,64.4,57.463a6.439,6.439,0,0,1,3.653-5.73,6.9,6.9,0,0,1,5.546.005,7.14,7.14,0,0,1,3.417,4.137c1.524,5.183-3.969,9.725-8.936,7.4Z" fill="#fff"/><circle cx="6.555" cy="6.555" r="6.555" transform="translate(64.674 51.189)" fill="#fff"/><path d="M130.906,164.27a12.891,12.891,0,0,1,2.195.447,7.955,7.955,0,0,1,2.2,1.1,3.859,3.859,0,0,1,1.262,1.388,5.8,5.8,0,0,1,.473,2.195,36.3,36.3,0,0,1-.184,5.151c-.237,2.673-.71,6.592-1.078,9.1a18.816,18.816,0,0,1-.972,4.442,3.976,3.976,0,0,1-2.917,2.549,6.3,6.3,0,0,1-1.524.131,6.513,6.513,0,0,1-1.524-.131,4.771,4.771,0,0,1-1.971-.841,4.275,4.275,0,0,1-1.314-2.05,21.791,21.791,0,0,1-.867-4.126c-.315-2.155-.736-5.362-1-7.806s-.368-4.126-.389-5.256a8.149,8.149,0,0,1,.158-2.234,4.478,4.478,0,0,1,.631-1.446,4.766,4.766,0,0,1,1.051-1.078,4.275,4.275,0,0,1,1.225-.662,9.238,9.238,0,0,1,1.682-.473c.683-.131,1.472-.263,1.877-.315a2.044,2.044,0,0,1,.857,0Z" transform="translate(-59.048 -97.432)" fill="#fff"/></g><path d="M6.392-22.815h4.084V0H6.392Zm-6.9-2.034H17.363v3.914H-.513ZM28.3.256A9.934,9.934,0,0,1,23.5-.829,7.162,7.162,0,0,1,20.457-3.99a11.037,11.037,0,0,1-1.042-5V-24.849H23.5V-8.87a5.27,5.27,0,0,0,1.256,3.76A4.637,4.637,0,0,0,28.3-3.777,4.688,4.688,0,0,0,31.873-5.11a5.248,5.248,0,0,0,1.265-3.76V-24.849h4.084V-8.989a11.037,11.037,0,0,1-1.042,5A7.15,7.15,0,0,1,33.129-.829,10.023,10.023,0,0,1,28.3.256Zm1.521-31.223h4.084v4.084H29.822Zm-7.092,0h4.084v4.084H22.729Zm21.311,16.8H52.6a2.756,2.756,0,0,0,1.512-.419,2.734,2.734,0,0,0,1.017-1.2,4.4,4.4,0,0,0,.376-1.786h0a4.16,4.16,0,0,0-.359-1.777,2.742,2.742,0,0,0-1.017-1.188,2.787,2.787,0,0,0-1.53-.419H44.041v-3.914h8.682a7.373,7.373,0,0,1,3.7.906A6.194,6.194,0,0,1,58.892-21.4a8.106,8.106,0,0,1,.872,3.828h0a8.08,8.08,0,0,1-.88,3.845,6.249,6.249,0,0,1-2.478,2.563,7.338,7.338,0,0,1-3.683.906H44.041Zm-1.692-10.7h4.084V0H42.349Zm7.69,13.843,4.238-.786L60.806,0H55.9Zm17.91.718L78.408-24.849H83.5L67.983-4.648ZM65.164-24.849h4.084V0H65.164ZM72.085-12.92l3.384-2.546L84.543,0h-4.9ZM94.9.256A9.417,9.417,0,0,1,90.209-.863a7.521,7.521,0,0,1-3.059-3.2,10.7,10.7,0,0,1-1.068-4.939v-6.819a10.758,10.758,0,0,1,1.068-4.948,7.51,7.51,0,0,1,3.059-3.213A9.417,9.417,0,0,1,94.9-25.1a8.586,8.586,0,0,1,4.059.957,8.193,8.193,0,0,1,3.025,2.76,11.143,11.143,0,0,1,1.649,4.264h-4.2a5.956,5.956,0,0,0-.974-2.094,4.647,4.647,0,0,0-1.581-1.376,4.193,4.193,0,0,0-1.974-.479,4.561,4.561,0,0,0-2.452.641,4.174,4.174,0,0,0-1.589,1.82,6.481,6.481,0,0,0-.555,2.786v6.819a6.438,6.438,0,0,0,.555,2.769,4.12,4.12,0,0,0,1.589,1.812,4.608,4.608,0,0,0,2.452.632,4.423,4.423,0,0,0,1.991-.453,4.423,4.423,0,0,0,1.581-1.342,5.647,5.647,0,0,0,.957-2.136h4.2a10.984,10.984,0,0,1-1.658,4.255A8.382,8.382,0,0,1,98.95-.709,8.474,8.474,0,0,1,94.9.256Zm-.479,6.956A10.915,10.915,0,0,1,91.6,6.9l.718-2.529a6.439,6.439,0,0,0,1.709.239,3.279,3.279,0,0,0,1.265-.188.6.6,0,0,0,.427-.547q0-.393-.632-.6a6.4,6.4,0,0,0-1.863-.205L94.8,1.06a5.646,5.646,0,0,1,3.247.778,2.607,2.607,0,0,1,1.111,2.281,2.586,2.586,0,0,1-1.2,2.3A6.436,6.436,0,0,1,94.421,7.212Zm1.846-8.254V3.11l-3.179-.034V-1.042Zm11.638-23.806h4.084V0h-4.084ZM109.6-3.914h14.612V0H109.6Zm0-10.391h12.732v3.914H109.6Zm0-10.544h14.612v3.914H109.6Zm30.591,11.3h7.947a3.221,3.221,0,0,0,1.735-.461,3.143,3.143,0,0,0,1.162-1.3,4.223,4.223,0,0,0,.419-1.914h0a4.379,4.379,0,0,0-.41-1.948,3.067,3.067,0,0,0-1.162-1.3,3.265,3.265,0,0,0-1.743-.461h-7.947v-3.914h7.827a8.22,8.22,0,0,1,4.008.948,6.628,6.628,0,0,1,2.683,2.675,8.171,8.171,0,0,1,.948,4h0a8.121,8.121,0,0,1-.948,3.99,6.587,6.587,0,0,1-2.683,2.657,8.28,8.28,0,0,1-4.008.94h-7.827Zm-1.965-11.3h4.084V0h-4.084ZM168.062.256A9.341,9.341,0,0,1,163.4-.88a7.867,7.867,0,0,1-3.127-3.213A10.045,10.045,0,0,1,159.158-8.9v-7.041a10.045,10.045,0,0,1,1.111-4.811,7.867,7.867,0,0,1,3.127-3.213,9.341,9.341,0,0,1,4.666-1.136,9.388,9.388,0,0,1,4.674,1.136,7.8,7.8,0,0,1,3.127,3.213,10.109,10.109,0,0,1,1.1,4.811V-8.9a10.109,10.109,0,0,1-1.1,4.811A7.8,7.8,0,0,1,172.736-.88,9.388,9.388,0,0,1,168.062.256Zm0-4.067a4.859,4.859,0,0,0,2.469-.615,4.165,4.165,0,0,0,1.649-1.743,5.632,5.632,0,0,0,.581-2.615v-7.28a5.685,5.685,0,0,0-.581-2.623,4.154,4.154,0,0,0-1.649-1.752,4.859,4.859,0,0,0-2.469-.615,4.812,4.812,0,0,0-2.461.615,4.17,4.17,0,0,0-1.641,1.752,5.685,5.685,0,0,0-.581,2.623v7.28a5.632,5.632,0,0,0,.581,2.615A4.181,4.181,0,0,0,165.6-4.426,4.812,4.812,0,0,0,168.062-3.811Zm16.218-.1h5.793A5.6,5.6,0,0,0,194-5.187a4.606,4.606,0,0,0,1.393-3.58v-7.314A4.6,4.6,0,0,0,194-19.67a5.628,5.628,0,0,0-3.922-1.265H184.28v-3.914h5.691a11.877,11.877,0,0,1,5.212,1.042,7.329,7.329,0,0,1,3.281,3.042,9.664,9.664,0,0,1,1.128,4.819V-8.9a9.7,9.7,0,0,1-1.1,4.751,7.358,7.358,0,0,1-3.273,3.076A11.75,11.75,0,0,1,189.954,0H184.28Zm-2.358-20.935h4.084V0h-4.084ZM212.512.256a9.417,9.417,0,0,1-4.691-1.119,7.521,7.521,0,0,1-3.059-3.2,10.7,10.7,0,0,1-1.068-4.939v-6.819a10.758,10.758,0,0,1,1.068-4.948,7.51,7.51,0,0,1,3.059-3.213,9.417,9.417,0,0,1,4.691-1.119,8.586,8.586,0,0,1,4.059.957,8.193,8.193,0,0,1,3.025,2.76,11.143,11.143,0,0,1,1.649,4.264h-4.2a5.956,5.956,0,0,0-.974-2.094,4.647,4.647,0,0,0-1.581-1.376,4.193,4.193,0,0,0-1.974-.479,4.561,4.561,0,0,0-2.452.641,4.174,4.174,0,0,0-1.589,1.82,6.481,6.481,0,0,0-.555,2.786v6.819a6.438,6.438,0,0,0,.555,2.769,4.12,4.12,0,0,0,1.589,1.812,4.608,4.608,0,0,0,2.452.632,4.423,4.423,0,0,0,1.991-.453,4.423,4.423,0,0,0,1.581-1.342,5.647,5.647,0,0,0,.957-2.136h4.2a10.984,10.984,0,0,1-1.658,4.255,8.382,8.382,0,0,1-3.025,2.76A8.474,8.474,0,0,1,212.512.256Zm19.26-25.1h2.974L244.077,0h-4.392l-6.426-18.508L226.851,0h-4.409ZM226.833-8.63h13.074v3.914H226.833ZM253.767.256a16.571,16.571,0,0,1-3.435-.35,13.7,13.7,0,0,1-3.1-1.042,12.769,12.769,0,0,1-2.64-1.683h0l2.17-3.264h0a10.4,10.4,0,0,0,3.23,1.829,11.28,11.28,0,0,0,3.777.632,7.117,7.117,0,0,0,3.871-.889,2.825,2.825,0,0,0,1.376-2.512v-.017a2.6,2.6,0,0,0-.615-1.82,3.6,3.6,0,0,0-1.606-.991,20.037,20.037,0,0,0-2.546-.59.323.323,0,0,0-.1-.017.323.323,0,0,1-.1-.017l-.308-.051a24.835,24.835,0,0,1-4.1-.974,5.9,5.9,0,0,1-2.734-2.017,6.586,6.586,0,0,1-1.128-4.119v-.017a7.389,7.389,0,0,1,1.06-4.033,6.636,6.636,0,0,1,3.076-2.546,12.2,12.2,0,0,1,4.854-.872,12.26,12.26,0,0,1,2.675.3,14.19,14.19,0,0,1,2.64.872,14.007,14.007,0,0,1,2.5,1.427h0l-1.982,3.367h0a11.623,11.623,0,0,0-2.905-1.555,8.671,8.671,0,0,0-2.922-.53,6.539,6.539,0,0,0-3.64.863,2.759,2.759,0,0,0-1.3,2.435v.017a2.506,2.506,0,0,0,.675,1.854,4.133,4.133,0,0,0,1.666,1,23.659,23.659,0,0,0,2.786.667,1.274,1.274,0,0,0,.128.026,1.274,1.274,0,0,1,.128.026,1.991,1.991,0,0,1,.2.043,1.991,1.991,0,0,0,.2.043,20.945,20.945,0,0,1,3.854,1.1,5.949,5.949,0,0,1,2.581,2.076,6.611,6.611,0,0,1,1.034,3.931v.034a7.025,7.025,0,0,1-1.094,3.973,6.862,6.862,0,0,1-3.179,2.521A13.007,13.007,0,0,1,253.767.256Zm17.4-23.071h4.084V0h-4.084Zm-6.9-2.034h17.876v3.914H264.26Z" transform="translate(98 76)" fill="#fff"/></g></g></svg>