<svg xmlns="http://www.w3.org/2000/svg" xmlns:xlink="http://www.w3.org/1999/xlink" width="400" height="100" viewBox="0 0 400 100"><defs><linearGradient id="a" x1="0.5" x2="0.5" y2="1" gradientUnits="objectBoundingBox"><stop offset="0" stop-color="#51ab6d"/><stop offset="1" stop-color="#44985e"/></linearGradient><clipPath id="c"><rect width="400" height="100"/></clipPath></defs><g id="b" clip-path="url(#c)"><rect width="400" height="100" rx="6" fill="url(#a)"/><g transform="translate(26.296 -10.386)"><g transform="translate(23.184 34.1)"><path d="M64.9,83.363c-1.99-.712-2.417-1.679-3.233-7.347-.949-6.588-1.156-10.667-.607-11.958.729-1.712,2.708-2.684,5.477-2.695,2.746-.011,4.743.969,5.477,2.695.551,1.29.345,5.37-.6,11.958-.645,4.6-1,5.766-1.89,6.548a4.566,4.566,0,0,1-4.6.8ZM56.4,76.6A23.218,23.218,0,0,1,43.524,59.895a30.791,30.791,0,0,1-.089-8.45,23.423,23.423,0,0,1,6.093-11.963A23.511,23.511,0,0,1,89.685,51.5a32.838,32.838,0,0,1,.022,7.96A23.64,23.64,0,0,1,80.7,74.179c-1.69,1.276-5.826,3.5-6.493,3.5-.245,0-.267-.253-.156-1.279.2-1.645.4-1.988,1.334-2.379a21.693,21.693,0,0,0,5.581-3.989,21.246,21.246,0,0,0,5.581-9.828,26.108,26.108,0,0,0-.133-9.739A20.743,20.743,0,0,0,70.785,35.593a26.224,26.224,0,0,0-8.338,0A20.906,20.906,0,0,0,46.681,50.958a28.211,28.211,0,0,0,0,9.272,21.3,21.3,0,0,0,8.872,12.541,19.211,19.211,0,0,0,2.29,1.312c.934.4,1.134.734,1.312,2.379.111,1,.089,1.29-.156,1.29a18.258,18.258,0,0,1-2.49-1.067Zm.089-9.046a16.693,16.693,0,0,1-5.2-8.33,18.426,18.426,0,0,1,.022-7.56A16.315,16.315,0,0,1,61.89,40.5a19.225,19.225,0,0,1,8.116-.294c7.738,1.723,13.23,9.472,12.163,17.159a15.676,15.676,0,0,1-3.38,8c-.934,1.194-3.2,3.2-3.6,3.2a5.676,5.676,0,0,1-.133-1.677V65.209l1.156-1.379a12.66,12.66,0,0,0-.712-17.3,12.07,12.07,0,0,0-6.737-3.462,8.6,8.6,0,0,0-4.025-.022,12.208,12.208,0,0,0-6.982,3.491,12.628,12.628,0,0,0-.734,17.293l1.147,1.379V66.9A4.473,4.473,0,0,1,58,68.589a8.119,8.119,0,0,1-1.423-1ZM64.2,58.478a5.172,5.172,0,0,1-3.069-4.921,5.447,5.447,0,0,1,3.091-4.847,5.839,5.839,0,0,1,4.692,0,6.04,6.04,0,0,1,2.891,3.5,5.4,5.4,0,0,1-7.56,6.264Z" transform="translate(-43.184 -32.1)" fill="#fff"/><ellipse cx="5.546" cy="5.546" rx="5.546" ry="5.546" transform="translate(18.181 16.15)" fill="#fff"/><path d="M129.732,164.27a10.906,10.906,0,0,1,1.857.378,6.73,6.73,0,0,1,1.859.929,3.265,3.265,0,0,1,1.067,1.174,4.91,4.91,0,0,1,.4,1.857,30.707,30.707,0,0,1-.156,4.358c-.2,2.261-.6,5.577-.912,7.7a15.919,15.919,0,0,1-.823,3.758,3.364,3.364,0,0,1-2.468,2.157,5.326,5.326,0,0,1-1.29.111,5.51,5.51,0,0,1-1.29-.111,4.036,4.036,0,0,1-1.668-.712,3.617,3.617,0,0,1-1.112-1.734,18.436,18.436,0,0,1-.734-3.491c-.267-1.823-.623-4.536-.845-6.6s-.311-3.491-.329-4.447a6.894,6.894,0,0,1,.133-1.89,3.788,3.788,0,0,1,.534-1.223,4.032,4.032,0,0,1,.889-.912,3.617,3.617,0,0,1,1.036-.56,7.816,7.816,0,0,1,1.423-.4c.578-.111,1.245-.222,1.588-.267a1.73,1.73,0,0,1,.725,0Z" transform="translate(-105.474 -134.881)" fill="#fff"/></g><path d="M5.329-24.07H8.784v19.3H5.329ZM-.513-25.791H14.611v3.311H-.513ZM23.864-4.551A8.4,8.4,0,0,1,19.8-5.469a6.059,6.059,0,0,1-2.574-2.675,9.337,9.337,0,0,1-.882-4.229V-25.791H19.8v13.519a4.459,4.459,0,0,0,1.063,3.181,3.923,3.923,0,0,0,3,1.128,3.966,3.966,0,0,0,3.022-1.128,4.44,4.44,0,0,0,1.07-3.181V-25.791h3.456v13.418a9.337,9.337,0,0,1-.882,4.229,6.049,6.049,0,0,1-2.581,2.675A8.48,8.48,0,0,1,23.864-4.551Zm1.287-26.416h3.456v3.456H25.151Zm-6,0h3.456v3.456H19.151Zm18.03,14.213h7.244a2.332,2.332,0,0,0,1.28-.354,2.313,2.313,0,0,0,.86-1.012,3.722,3.722,0,0,0,.318-1.511h0a3.52,3.52,0,0,0-.3-1.5,2.32,2.32,0,0,0-.86-1,2.358,2.358,0,0,0-1.294-.354H37.181v-3.311h7.345a6.238,6.238,0,0,1,3.13.766,5.24,5.24,0,0,1,2.089,2.169,6.858,6.858,0,0,1,.737,3.239h0a6.836,6.836,0,0,1-.745,3.253,5.287,5.287,0,0,1-2.1,2.169,6.208,6.208,0,0,1-3.116.766H37.181Zm-1.431-9.051H39.2V-4.768H35.749Zm6.506,11.711,3.586-.665,5.523,9.991h-4.15Zm15.152.607,8.849-12.3h4.309L57.437-8.7Zm-2.357-12.3h3.456V-4.768H55.051ZM60.907-15.7l2.863-2.154L71.447-4.768H67.3Zm19.3,11.148A7.967,7.967,0,0,1,76.24-5.5a6.363,6.363,0,0,1-2.588-2.711,9.057,9.057,0,0,1-.9-4.179v-5.769a9.1,9.1,0,0,1,.9-4.186A6.354,6.354,0,0,1,76.24-25.06a7.967,7.967,0,0,1,3.969-.947,7.264,7.264,0,0,1,3.434.81A6.931,6.931,0,0,1,86.2-22.863a9.427,9.427,0,0,1,1.4,3.607H84.04a5.039,5.039,0,0,0-.824-1.771,3.931,3.931,0,0,0-1.337-1.164,3.548,3.548,0,0,0-1.67-.4,3.859,3.859,0,0,0-2.075.542,3.531,3.531,0,0,0-1.345,1.54,5.483,5.483,0,0,0-.47,2.357v5.769a5.447,5.447,0,0,0,.47,2.342,3.485,3.485,0,0,0,1.345,1.533,3.9,3.9,0,0,0,2.075.535,3.742,3.742,0,0,0,1.684-.383A3.742,3.742,0,0,0,83.231-9.5a4.777,4.777,0,0,0,.81-1.807H87.6a9.293,9.293,0,0,1-1.4,3.6,7.091,7.091,0,0,1-2.559,2.335A7.169,7.169,0,0,1,80.209-4.551Zm-.4,5.885a9.234,9.234,0,0,1-2.386-.26l.607-2.14a5.447,5.447,0,0,0,1.446.2,2.774,2.774,0,0,0,1.07-.159.5.5,0,0,0,.361-.463q0-.333-.535-.506a5.418,5.418,0,0,0-1.576-.174l1.33-1.706a4.777,4.777,0,0,1,2.747.658,2.206,2.206,0,0,1,.94,1.93A2.188,2.188,0,0,1,82.79.661,5.445,5.445,0,0,1,79.8,1.334ZM81.366-5.65v3.513l-2.689-.029V-5.65Zm9.846-20.141h3.456V-4.768H91.212ZM92.643-8.079h12.362v3.311H92.643Zm0-8.791h10.772v3.311H92.643Zm0-8.921h12.362v3.311H92.643Zm25.881,9.557h6.723a2.725,2.725,0,0,0,1.468-.39,2.659,2.659,0,0,0,.983-1.1,3.573,3.573,0,0,0,.354-1.619h0a3.7,3.7,0,0,0-.347-1.648,2.6,2.6,0,0,0-.983-1.1,2.762,2.762,0,0,0-1.475-.39h-6.723v-3.311h6.622a6.954,6.954,0,0,1,3.391.8,5.608,5.608,0,0,1,2.27,2.263,6.912,6.912,0,0,1,.8,3.383h0a6.871,6.871,0,0,1-.8,3.376,5.573,5.573,0,0,1-2.27,2.248,7.005,7.005,0,0,1-3.391.8h-6.622Zm-1.663-9.557h3.456V-4.768h-3.456Zm25.245,21.24a7.9,7.9,0,0,1-3.947-.961,6.656,6.656,0,0,1-2.646-2.718,8.5,8.5,0,0,1-.94-4.07v-5.957a8.5,8.5,0,0,1,.94-4.07,6.656,6.656,0,0,1,2.646-2.718,7.9,7.9,0,0,1,3.947-.961,7.943,7.943,0,0,1,3.954.961,6.6,6.6,0,0,1,2.646,2.718,8.552,8.552,0,0,1,.933,4.07V-12.3a8.552,8.552,0,0,1-.933,4.07,6.6,6.6,0,0,1-2.646,2.718A7.943,7.943,0,0,1,142.106-4.551Zm0-3.441a4.111,4.111,0,0,0,2.089-.521,3.524,3.524,0,0,0,1.4-1.475,4.765,4.765,0,0,0,.492-2.212v-6.159a4.809,4.809,0,0,0-.492-2.219,3.514,3.514,0,0,0-1.4-1.482,4.111,4.111,0,0,0-2.089-.521,4.071,4.071,0,0,0-2.082.521,3.528,3.528,0,0,0-1.388,1.482,4.809,4.809,0,0,0-.492,2.219V-12.2a4.765,4.765,0,0,0,.492,2.212,3.537,3.537,0,0,0,1.388,1.475A4.071,4.071,0,0,0,142.106-7.992Zm13.721-.087h4.9a4.741,4.741,0,0,0,3.318-1.077,3.9,3.9,0,0,0,1.178-3.029v-6.188a3.892,3.892,0,0,0-1.178-3.036,4.761,4.761,0,0,0-3.318-1.07h-4.9v-3.311h4.815a10.048,10.048,0,0,1,4.41.882,6.2,6.2,0,0,1,2.776,2.574,8.176,8.176,0,0,1,.954,4.077V-12.3a8.2,8.2,0,0,1-.933,4.019,6.225,6.225,0,0,1-2.769,2.6,9.941,9.941,0,0,1-4.453.911h-4.8Zm-2-17.712h3.456V-4.768h-3.456Zm25.881,21.24a7.967,7.967,0,0,1-3.969-.947,6.363,6.363,0,0,1-2.588-2.711,9.057,9.057,0,0,1-.9-4.179v-5.769a9.1,9.1,0,0,1,.9-4.186,6.354,6.354,0,0,1,2.588-2.718,7.967,7.967,0,0,1,3.969-.947,7.264,7.264,0,0,1,3.434.81,6.931,6.931,0,0,1,2.559,2.335,9.427,9.427,0,0,1,1.4,3.607h-3.557a5.039,5.039,0,0,0-.824-1.771,3.931,3.931,0,0,0-1.337-1.164,3.548,3.548,0,0,0-1.67-.4,3.859,3.859,0,0,0-2.075.542,3.531,3.531,0,0,0-1.345,1.54,5.483,5.483,0,0,0-.47,2.357v5.769a5.446,5.446,0,0,0,.47,2.342,3.485,3.485,0,0,0,1.345,1.533,3.9,3.9,0,0,0,2.075.535,3.742,3.742,0,0,0,1.684-.383A3.742,3.742,0,0,0,182.734-9.5a4.777,4.777,0,0,0,.81-1.807H187.1a9.293,9.293,0,0,1-1.4,3.6,7.091,7.091,0,0,1-2.559,2.335A7.169,7.169,0,0,1,179.712-4.551Zm16.295-21.24h2.516l7.894,21.023H202.7l-5.436-15.659L191.843-4.768h-3.73Zm-4.178,13.721h11.061v3.311H191.828Zm22.787,7.518a14.019,14.019,0,0,1-2.906-.3,11.593,11.593,0,0,1-2.624-.882,10.8,10.8,0,0,1-2.234-1.424h0l1.836-2.762h0a8.8,8.8,0,0,0,2.733,1.547,9.543,9.543,0,0,0,3.2.535,6.021,6.021,0,0,0,3.275-.752,2.39,2.39,0,0,0,1.164-2.125v-.014a2.2,2.2,0,0,0-.521-1.54,3.047,3.047,0,0,0-1.359-.839,16.951,16.951,0,0,0-2.154-.5.273.273,0,0,0-.087-.014.273.273,0,0,1-.087-.014l-.26-.043a21.011,21.011,0,0,1-3.47-.824A4.99,4.99,0,0,1,208.8-16.2a5.572,5.572,0,0,1-.954-3.485V-19.7a6.252,6.252,0,0,1,.9-3.412,5.615,5.615,0,0,1,2.6-2.154,10.319,10.319,0,0,1,4.106-.737,10.372,10.372,0,0,1,2.263.253,12.006,12.006,0,0,1,2.234.737,11.85,11.85,0,0,1,2.111,1.207h0l-1.677,2.848h0a9.833,9.833,0,0,0-2.458-1.316,7.336,7.336,0,0,0-2.472-.448,5.532,5.532,0,0,0-3.08.73,2.334,2.334,0,0,0-1.1,2.06v.014a2.12,2.12,0,0,0,.571,1.569,3.5,3.5,0,0,0,1.41.846,20.015,20.015,0,0,0,2.357.564,1.078,1.078,0,0,0,.108.022,1.079,1.079,0,0,1,.108.022,1.685,1.685,0,0,1,.166.036,1.682,1.682,0,0,0,.166.036,17.719,17.719,0,0,1,3.26.933,5.033,5.033,0,0,1,2.183,1.757,5.593,5.593,0,0,1,.875,3.325v.029a5.944,5.944,0,0,1-.925,3.362,5.8,5.8,0,0,1-2.689,2.133A11,11,0,0,1,214.615-4.551ZM229.334-24.07h3.456v19.3h-3.456Zm-5.841-1.721h15.124v3.311H223.492Z" transform="translate(86.559 74.317)" fill="#fff"/></g></g></svg>